<?xml version="1.0" encoding="UTF-8"?>
<svg version="1.1" xmlns="http://www.w3.org/2000/svg" width="512" height="512">
<path d="M0 0 C1.95358681 -0.01270432 1.95358681 -0.01270432 3.94664001 -0.02566528 C7.48833052 -0.04770206 11.02978715 -0.05082086 14.57153678 -0.04891777 C17.545539 -0.04879719 20.51949324 -0.05739732 23.49348193 -0.06569529 C30.52140402 -0.084867 37.54920738 -0.08783678 44.57714844 -0.08105469 C51.78508978 -0.07442573 58.99251788 -0.09724609 66.20035523 -0.13436842 C72.42500899 -0.16524313 78.6494992 -0.17640616 84.87422782 -0.1725316 C88.57585737 -0.17048152 92.27708761 -0.17566851 95.97864342 -0.20042419 C120.45544761 -0.35122665 138.64428149 1.65378864 157.2355957 19.03710938 C169.91396244 32.25728665 174.98437023 47.90210845 174.94067383 65.89916992 C174.94914337 67.20156113 174.95761292 68.50395233 174.96633911 69.84580994 C174.98837588 73.38750044 174.99149469 76.92895707 174.9895916 80.4707067 C174.98947101 83.44470892 174.99807114 86.41866316 175.00636911 89.39265186 C175.02554083 96.42057394 175.02851061 103.4483773 175.02172852 110.47631836 C175.01509955 117.6842597 175.03791992 124.8916878 175.07504225 132.09952515 C175.10591696 138.32417891 175.11707999 144.54866913 175.11320543 150.77339774 C175.11115534 154.47502729 175.11634234 158.17625754 175.14109802 161.87781334 C175.29190048 186.35461753 173.28688519 204.54345141 155.90356445 223.13476562 C142.66527769 235.83049965 127.01429476 240.89092151 108.99389648 240.82397461 C107.6866864 240.83083786 106.37947632 240.83770111 105.03265381 240.84477234 C101.47875412 240.86257005 97.92510313 240.86156078 94.37117243 240.85582995 C91.38943425 240.85271817 88.40774249 240.85885257 85.42601097 240.8648687 C78.38382079 240.87886873 71.34175203 240.87739087 64.29956055 240.8659668 C57.06776766 240.85449339 49.83634598 240.86855831 42.60460198 240.89536327 C36.36471188 240.91761412 30.1249375 240.92413655 23.8850106 240.91828686 C20.17180664 240.91493798 16.4588404 240.91719265 12.74567032 240.93453789 C8.59901155 240.9530663 4.45306155 240.9387241 0.30639648 240.92163086 C-0.90128387 240.93129883 -2.10896423 240.9409668 -3.35324097 240.95092773 C-21.05125379 240.79909588 -36.18587477 233.56677027 -48.67456055 221.25585938 C-65.50435615 203.1462314 -66.25776665 183.39640099 -66.15087557 159.86216736 C-66.13804297 156.14344558 -66.15000405 152.4247795 -66.1578064 148.70605469 C-66.16685327 142.46603144 -66.15504683 136.22630596 -66.13110352 129.98632812 C-66.10390154 122.81516779 -66.11271927 115.64471873 -66.14023554 108.47357559 C-66.16306857 102.27002079 -66.16605808 96.06667766 -66.1530422 89.86309433 C-66.14532487 86.17834604 -66.14398884 82.49392985 -66.16072464 78.8092041 C-66.25635299 54.4123047 -64.18423066 36.23099226 -46.86206055 17.70507812 C-33.64188327 5.02671139 -17.99706147 -0.0436964 0 0 Z " fill="#9ea4aa" transform="translate(337.479248046875,271.580078125)"/>
<path d="M0 0 C1.95358681 -0.01270432 1.95358681 -0.01270432 3.94664001 -0.02566528 C7.48833052 -0.04770206 11.02978715 -0.05082086 14.57153678 -0.04891777 C17.545539 -0.04879719 20.51949324 -0.05739732 23.49348193 -0.06569529 C30.52140402 -0.084867 37.54920738 -0.08783678 44.57714844 -0.08105469 C51.78508978 -0.07442573 58.99251788 -0.09724609 66.20035523 -0.13436842 C72.42500899 -0.16524313 78.6494992 -0.17640616 84.87422782 -0.1725316 C88.57585737 -0.17048152 92.27708761 -0.17566851 95.97864342 -0.20042419 C120.45544761 -0.35122665 138.64428149 1.65378864 157.2355957 19.03710938 C169.91396244 32.25728665 174.98437023 47.90210845 174.94067383 65.89916992 C174.94914337 67.20156113 174.95761292 68.50395233 174.96633911 69.84580994 C174.98837588 73.38750044 174.99149469 76.92895707 174.9895916 80.4707067 C174.98947101 83.44470892 174.99807114 86.41866316 175.00636911 89.39265186 C175.02554083 96.42057394 175.02851061 103.4483773 175.02172852 110.47631836 C175.01509955 117.6842597 175.03791992 124.8916878 175.07504225 132.09952515 C175.10591696 138.32417891 175.11707999 144.54866913 175.11320543 150.77339774 C175.11115534 154.47502729 175.11634234 158.17625754 175.14109802 161.87781334 C175.29190048 186.35461753 173.28688519 204.54345141 155.90356445 223.13476562 C142.66527769 235.83049965 127.01429476 240.89092151 108.99389648 240.82397461 C107.6866864 240.83083786 106.37947632 240.83770111 105.03265381 240.84477234 C101.47875412 240.86257005 97.92510313 240.86156078 94.37117243 240.85582995 C91.38943425 240.85271817 88.40774249 240.85885257 85.42601097 240.8648687 C78.38382079 240.87886873 71.34175203 240.87739087 64.29956055 240.8659668 C57.06776766 240.85449339 49.83634598 240.86855831 42.60460198 240.89536327 C36.36471188 240.91761412 30.1249375 240.92413655 23.8850106 240.91828686 C20.17180664 240.91493798 16.4588404 240.91719265 12.74567032 240.93453789 C8.59901155 240.9530663 4.45306155 240.9387241 0.30639648 240.92163086 C-0.90128387 240.93129883 -2.10896423 240.9409668 -3.35324097 240.95092773 C-21.05125379 240.79909588 -36.18587477 233.56677027 -48.67456055 221.25585938 C-65.50435615 203.1462314 -66.25776665 183.39640099 -66.15087557 159.86216736 C-66.13804297 156.14344558 -66.15000405 152.4247795 -66.1578064 148.70605469 C-66.16685327 142.46603144 -66.15504683 136.22630596 -66.13110352 129.98632812 C-66.10390154 122.81516779 -66.11271927 115.64471873 -66.14023554 108.47357559 C-66.16306857 102.27002079 -66.16605808 96.06667766 -66.1530422 89.86309433 C-66.14532487 86.17834604 -66.14398884 82.49392985 -66.16072464 78.8092041 C-66.25635299 54.4123047 -64.18423066 36.23099226 -46.86206055 17.70507812 C-33.64188327 5.02671139 -17.99706147 -0.0436964 0 0 Z " fill="#9ea4aa" transform="translate(65.479248046875,271.580078125)"/>
<path d="M0 0 C1.95358681 -0.01270432 1.95358681 -0.01270432 3.94664001 -0.02566528 C7.48833052 -0.04770206 11.02978715 -0.05082086 14.57153678 -0.04891777 C17.545539 -0.04879719 20.51949324 -0.05739732 23.49348193 -0.06569529 C30.52140402 -0.084867 37.54920738 -0.08783678 44.57714844 -0.08105469 C51.78508978 -0.07442573 58.99251788 -0.09724609 66.20035523 -0.13436842 C72.42500899 -0.16524313 78.6494992 -0.17640616 84.87422782 -0.1725316 C88.57585737 -0.17048152 92.27708761 -0.17566851 95.97864342 -0.20042419 C120.45544761 -0.35122665 138.64428149 1.65378864 157.2355957 19.03710938 C169.91396244 32.25728665 174.98437023 47.90210845 174.94067383 65.89916992 C174.94914337 67.20156113 174.95761292 68.50395233 174.96633911 69.84580994 C174.98837588 73.38750044 174.99149469 76.92895707 174.9895916 80.4707067 C174.98947101 83.44470892 174.99807114 86.41866316 175.00636911 89.39265186 C175.02554083 96.42057394 175.02851061 103.4483773 175.02172852 110.47631836 C175.01509955 117.6842597 175.03791992 124.8916878 175.07504225 132.09952515 C175.10591696 138.32417891 175.11707999 144.54866913 175.11320543 150.77339774 C175.11115534 154.47502729 175.11634234 158.17625754 175.14109802 161.87781334 C175.29190048 186.35461753 173.28688519 204.54345141 155.90356445 223.13476562 C142.66527769 235.83049965 127.01429476 240.89092151 108.99389648 240.82397461 C107.6866864 240.83083786 106.37947632 240.83770111 105.03265381 240.84477234 C101.47875412 240.86257005 97.92510313 240.86156078 94.37117243 240.85582995 C91.38943425 240.85271817 88.40774249 240.85885257 85.42601097 240.8648687 C78.38382079 240.87886873 71.34175203 240.87739087 64.29956055 240.8659668 C57.06776766 240.85449339 49.83634598 240.86855831 42.60460198 240.89536327 C36.36471188 240.91761412 30.1249375 240.92413655 23.8850106 240.91828686 C20.17180664 240.91493798 16.4588404 240.91719265 12.74567032 240.93453789 C8.59901155 240.9530663 4.45306155 240.9387241 0.30639648 240.92163086 C-0.90128387 240.93129883 -2.10896423 240.9409668 -3.35324097 240.95092773 C-21.05125379 240.79909588 -36.18587477 233.56677027 -48.67456055 221.25585938 C-65.50435615 203.1462314 -66.25776665 183.39640099 -66.15087557 159.86216736 C-66.13804297 156.14344558 -66.15000405 152.4247795 -66.1578064 148.70605469 C-66.16685327 142.46603144 -66.15504683 136.22630596 -66.13110352 129.98632812 C-66.10390154 122.81516779 -66.11271927 115.64471873 -66.14023554 108.47357559 C-66.16306857 102.27002079 -66.16605808 96.06667766 -66.1530422 89.86309433 C-66.14532487 86.17834604 -66.14398884 82.49392985 -66.16072464 78.8092041 C-66.25635299 54.4123047 -64.18423066 36.23099226 -46.86206055 17.70507812 C-33.64188327 5.02671139 -17.99706147 -0.0436964 0 0 Z " fill="#9ea4aa" transform="translate(337.479248046875,-0.419921875)"/>
<path d="M0 0 C1.95358681 -0.01270432 1.95358681 -0.01270432 3.94664001 -0.02566528 C7.48833052 -0.04770206 11.02978715 -0.05082086 14.57153678 -0.04891777 C17.545539 -0.04879719 20.51949324 -0.05739732 23.49348193 -0.06569529 C30.52140402 -0.084867 37.54920738 -0.08783678 44.57714844 -0.08105469 C51.78508978 -0.07442573 58.99251788 -0.09724609 66.20035523 -0.13436842 C72.42500899 -0.16524313 78.6494992 -0.17640616 84.87422782 -0.1725316 C88.57585737 -0.17048152 92.27708761 -0.17566851 95.97864342 -0.20042419 C120.45544761 -0.35122665 138.64428149 1.65378864 157.2355957 19.03710938 C169.91396244 32.25728665 174.98437023 47.90210845 174.94067383 65.89916992 C174.94914337 67.20156113 174.95761292 68.50395233 174.96633911 69.84580994 C174.98837588 73.38750044 174.99149469 76.92895707 174.9895916 80.4707067 C174.98947101 83.44470892 174.99807114 86.41866316 175.00636911 89.39265186 C175.02554083 96.42057394 175.02851061 103.4483773 175.02172852 110.47631836 C175.01509955 117.6842597 175.03791992 124.8916878 175.07504225 132.09952515 C175.10591696 138.32417891 175.11707999 144.54866913 175.11320543 150.77339774 C175.11115534 154.47502729 175.11634234 158.17625754 175.14109802 161.87781334 C175.29190048 186.35461753 173.28688519 204.54345141 155.90356445 223.13476562 C142.66527769 235.83049965 127.01429476 240.89092151 108.99389648 240.82397461 C107.6866864 240.83083786 106.37947632 240.83770111 105.03265381 240.84477234 C101.47875412 240.86257005 97.92510313 240.86156078 94.37117243 240.85582995 C91.38943425 240.85271817 88.40774249 240.85885257 85.42601097 240.8648687 C78.38382079 240.87886873 71.34175203 240.87739087 64.29956055 240.8659668 C57.06776766 240.85449339 49.83634598 240.86855831 42.60460198 240.89536327 C36.36471188 240.91761412 30.1249375 240.92413655 23.8850106 240.91828686 C20.17180664 240.91493798 16.4588404 240.91719265 12.74567032 240.93453789 C8.59901155 240.9530663 4.45306155 240.9387241 0.30639648 240.92163086 C-0.90128387 240.93129883 -2.10896423 240.9409668 -3.35324097 240.95092773 C-21.05125379 240.79909588 -36.18587477 233.56677027 -48.67456055 221.25585938 C-65.50435615 203.1462314 -66.25776665 183.39640099 -66.15087557 159.86216736 C-66.13804297 156.14344558 -66.15000405 152.4247795 -66.1578064 148.70605469 C-66.16685327 142.46603144 -66.15504683 136.22630596 -66.13110352 129.98632812 C-66.10390154 122.81516779 -66.11271927 115.64471873 -66.14023554 108.47357559 C-66.16306857 102.27002079 -66.16605808 96.06667766 -66.1530422 89.86309433 C-66.14532487 86.17834604 -66.14398884 82.49392985 -66.16072464 78.8092041 C-66.25635299 54.4123047 -64.18423066 36.23099226 -46.86206055 17.70507812 C-33.64188327 5.02671139 -17.99706147 -0.0436964 0 0 Z " fill="#9ea4aa" transform="translate(65.479248046875,-0.419921875)"/>
</svg>
