<?xml version="1.0" encoding="UTF-8"?>
<svg version="1.1" xmlns="http://www.w3.org/2000/svg" width="512" height="512">
<path d="M0 0 C0.62132813 0.391875 1.24265625 0.78375 1.8828125 1.1875 C2.50414063 1.538125 3.12546875 1.88875 3.765625 2.25 C10.90002115 6.69741578 14.28924258 13.40679025 16.8828125 21.1875 C16.8828125 30.4275 16.8828125 39.6675 16.8828125 49.1875 C51.8628125 49.1875 86.8428125 49.1875 122.8828125 49.1875 C122.8828125 39.9475 122.8828125 30.7075 122.8828125 21.1875 C127.47424394 10.85677925 132.82187395 2.46261666 143.61328125 -1.921875 C152.26581004 -4.27883625 162.65233665 -3.98210142 170.77734375 -0.0625 C177.82064057 4.11904913 182.63989871 9.59727453 185.8828125 17.1875 C187.8828125 27.1875 187.8828125 27.1875 187.8828125 49.1875 C222.5328125 49.1875 257.1828125 49.1875 292.8828125 49.1875 C292.8828125 39.9475 292.8828125 30.7075 292.8828125 21.1875 C297.95290907 9.77978271 301.99817827 2.81818038 313.68359375 -1.95703125 C322.33119308 -4.26939298 332.65823894 -3.96451852 340.7734375 -0.0703125 C349.19066724 4.94885042 354.17300071 11.78314672 356.8828125 21.1875 C357.10986328 24.43896484 357.10986328 24.43896484 357.078125 27.8984375 C357.07167969 29.14238281 357.06523437 30.38632812 357.05859375 31.66796875 C357.04183594 32.95316406 357.02507812 34.23835938 357.0078125 35.5625 C356.99878906 36.87089844 356.98976563 38.17929687 356.98046875 39.52734375 C356.95696335 42.7475837 356.92410337 45.96744707 356.8828125 49.1875 C357.46135986 49.16655273 358.03990723 49.14560547 358.63598633 49.12402344 C380.27892693 48.44357679 380.27892693 48.44357679 388.8828125 53.1875 C389.676875 53.62320313 390.4709375 54.05890625 391.2890625 54.5078125 C401.17080843 60.53567751 406.96432493 68.94591198 410.43350571 79.93130726 C411.02833313 82.91823144 411.0124523 85.75566786 411.01703358 88.8022089 C411.01938581 89.46874795 411.02173804 90.135287 411.02416155 90.8220242 C411.03084207 93.06545289 411.03039361 95.30882355 411.02998352 97.55226135 C411.03328274 99.17304619 411.03700843 100.79383022 411.041125 102.41461319 C411.0511466 106.87656036 411.05486205 111.33849409 411.05751431 115.80045092 C411.06141691 120.60977604 411.0709953 125.4190905 411.07972717 130.22840881 C411.0994932 141.8472128 411.10955813 153.46601765 411.11845496 165.08483425 C411.12283778 170.55602205 411.12820462 176.02720888 411.13344383 181.49839592 C411.15045651 199.68551336 411.16495064 217.8726302 411.17219257 236.05975437 C411.17410248 240.77982649 411.17602281 245.4998986 411.17797852 250.2199707 C411.17846226 251.3931255 411.178946 252.5662803 411.1794444 253.77498525 C411.18774452 272.77891765 411.21308099 291.78278711 411.24555919 310.78669203 C411.27863027 330.29653714 411.2966414 349.80635027 411.29983681 369.31622356 C411.3020019 380.27070102 411.31075035 391.22508668 411.33629799 402.17953682 C411.35800565 411.50903357 411.36605506 420.83841624 411.35633121 430.16793538 C411.35178668 434.92676629 411.3536817 439.68536183 411.37309265 444.44416046 C411.39072615 448.8049239 411.3897251 453.16528028 411.37419536 457.52604806 C411.37181957 459.09947003 411.37614136 460.6729202 411.38802401 462.2462991 C411.48710336 476.23756941 408.7564459 487.60437436 399.10546875 498.125 C391.04026807 505.77786936 381.41910397 509.34489454 370.45600033 509.32172108 C369.70166585 509.32407331 368.94733137 509.32642554 368.17013827 509.32884905 C365.6280545 509.33553617 363.08602188 509.33508091 360.54393005 509.33467102 C358.7086557 509.33796983 356.87338207 509.34169543 355.03810936 509.3458125 C349.9832805 509.35583877 344.92846351 509.3595503 339.87362611 509.36220181 C334.42625891 509.36610301 328.97890112 509.37568149 323.53153992 509.38441467 C310.37026734 509.40418445 297.20899399 509.41424602 284.04771027 509.42314246 C277.85129041 509.42752459 271.65487141 509.4328916 265.45845222 509.43813133 C244.86253124 509.45514424 224.26661079 509.46963865 203.67068386 509.47688007 C198.32497087 509.47879 192.97925789 509.48070867 187.63354492 509.48266602 C186.96941498 509.48290617 186.30528503 509.48314632 185.62102993 509.48339374 C164.0928163 509.49128505 142.5646578 509.51471321 121.03646823 509.54722196 C98.27224492 509.58153437 75.50805236 509.60123141 52.74380261 509.60452431 C40.33615459 509.60669011 27.92858759 509.61544906 15.52096367 509.64098549 C4.95446479 509.66268228 -5.6119334 509.6707479 -16.17845202 509.66101871 C-21.5691556 509.65647107 -26.9596514 509.6583874 -32.35032654 509.67778015 C-37.28840634 509.69539118 -42.22612644 509.69443065 -47.16420995 509.67888286 C-48.94758957 509.67650368 -50.73099396 509.68084643 -52.5143357 509.69271151 C-67.08605471 509.78363113 -78.97847483 507.57079489 -90.0546875 497.41015625 C-97.42227518 489.64560803 -101.2354507 480.18475509 -101.25140858 469.5727911 C-101.25376081 468.90625205 -101.25611304 468.239713 -101.25853655 467.5529758 C-101.26521707 465.30954711 -101.26476861 463.06617645 -101.26435852 460.82273865 C-101.26765774 459.20195381 -101.27138343 457.58116978 -101.2755 455.96038681 C-101.2855216 451.49843964 -101.28923705 447.03650591 -101.29188931 442.57454908 C-101.29579191 437.76522396 -101.3053703 432.9559095 -101.31410217 428.14659119 C-101.3338682 416.5277872 -101.34393313 404.90898235 -101.35282996 393.29016575 C-101.35721278 387.81897795 -101.36257962 382.34779112 -101.36781883 376.87660408 C-101.38483151 358.68948664 -101.39932564 340.5023698 -101.40656757 322.31524563 C-101.40847748 317.59517351 -101.41039781 312.8751014 -101.41235352 308.1550293 C-101.41283726 306.9818745 -101.413321 305.8087197 -101.4138194 304.60001475 C-101.42211952 285.59608235 -101.44745599 266.59221289 -101.47993419 247.58830797 C-101.51300527 228.07846286 -101.5310164 208.56864973 -101.53421181 189.05877644 C-101.5363769 178.10429898 -101.54512535 167.14991332 -101.57067299 156.19546318 C-101.59238065 146.86596643 -101.60043006 137.53658376 -101.59070621 128.20706462 C-101.58616168 123.44823371 -101.5880567 118.68963817 -101.60746765 113.93083954 C-101.62510115 109.5700761 -101.6241001 105.20971972 -101.60857036 100.84895194 C-101.60619457 99.27552997 -101.61051636 97.7020798 -101.62239901 96.1287009 C-101.72147836 82.13743059 -98.9908209 70.77062564 -89.33984375 60.25 C-82.25741452 53.52965815 -72.9702976 49.02985908 -63.1328125 49.08984375 C-62.19824219 49.09306641 -61.26367188 49.09628906 -60.30078125 49.09960938 C-59.33269531 49.10798828 -58.36460938 49.11636719 -57.3671875 49.125 C-55.89185547 49.13176758 -55.89185547 49.13176758 -54.38671875 49.13867188 C-51.96347959 49.15043517 -49.54036477 49.16687316 -47.1171875 49.1875 C-47.13813477 48.39166504 -47.15908203 47.59583008 -47.18066406 46.77587891 C-47.26452518 43.12155112 -47.31606964 39.46742667 -47.3671875 35.8125 C-47.40070312 34.56082031 -47.43421875 33.30914062 -47.46875 32.01953125 C-47.57596048 21.78093016 -45.97463669 13.37893549 -38.8203125 5.71875 C-28.66159465 -3.41477614 -12.36547121 -6.77044811 0 0 Z M-25.1171875 23.1875 C-27.93009414 29.06456202 -27.42292272 35.406896 -27.41796875 41.77734375 C-27.42225388 42.99523087 -27.426539 44.21311798 -27.43095398 45.46791077 C-27.43668749 48.03906636 -27.43720477 50.61023817 -27.43286133 53.18139648 C-27.42970155 57.10754143 -27.45317356 61.03293252 -27.47851562 64.95898438 C-27.48078877 67.46093655 -27.48149204 69.96289075 -27.48046875 72.46484375 C-27.4896785 73.63482407 -27.49888824 74.80480438 -27.50837708 76.01023865 C-27.46627124 83.45466651 -27.07600957 88.89052684 -21.9296875 94.625 C-18.27961794 96.65281642 -15.14685716 97.12408338 -11.1171875 96.1875 C-8.1012143 94.42601565 -5.70348311 92.36009122 -4.1171875 89.1875 C-4.00015174 87.18761109 -3.94743319 85.1838412 -3.92431641 83.18066406 C-3.90825348 81.91885315 -3.89219055 80.65704224 -3.87564087 79.35699463 C-3.86415268 77.97237827 -3.85354426 76.58775438 -3.84375 75.203125 C-3.83842632 74.50636406 -3.83310265 73.80960312 -3.82761765 73.09172821 C-3.80088799 69.40198365 -3.78151473 65.71227285 -3.76708984 62.02246094 C-3.75376207 58.97267586 -3.72593274 55.92356173 -3.68505859 52.87402344 C-3.63566465 49.18876367 -3.61096055 45.50411149 -3.60386276 41.81853485 C-3.59716135 40.41671875 -3.58196784 39.01491561 -3.55797195 37.61328888 C-3.10114298 28.95003833 -3.10114298 28.95003833 -6.52490234 21.34277344 C-10.09897694 18.37122224 -12.31002892 17.77530497 -17.015625 17.84375 C-20.75617102 18.45558652 -22.63109962 20.46464185 -25.1171875 23.1875 Z M144.8828125 23.1875 C143.5152712 25.92258259 143.7252726 28.13272342 143.68994141 31.19433594 C143.66584702 33.08705231 143.66584702 33.08705231 143.64126587 35.01800537 C143.62977768 36.40262173 143.61916926 37.78724562 143.609375 39.171875 C143.60405132 39.86863594 143.59872765 40.56539688 143.59324265 41.28327179 C143.56651299 44.97301635 143.54713973 48.66272715 143.53271484 52.35253906 C143.51938707 55.40232414 143.49155774 58.45143827 143.45068359 61.50097656 C143.40128965 65.18623633 143.37658555 68.87088851 143.36948776 72.55646515 C143.36278635 73.95828125 143.34759284 75.36008439 143.32359695 76.76171112 C142.86676798 85.42496167 142.86676798 85.42496167 146.29052734 93.03222656 C149.95083031 96.0754696 152.05520168 96.47104043 156.84765625 96.41015625 C159.78373712 96.08893435 161.59201748 95.00666075 163.8828125 93.1875 C166.83965367 88.75223825 167.00738779 84.81540234 167.02807617 79.57446289 C167.03445602 78.47304459 167.04083588 77.37162628 167.04740906 76.23683167 C167.04852188 75.05652878 167.0496347 73.87622589 167.05078125 72.66015625 C167.05410965 71.43848251 167.05743805 70.21680878 167.06086731 68.95811462 C167.06592557 66.37678402 167.06827598 63.79544689 167.06811523 61.21411133 C167.07030237 57.26828234 167.0884719 53.32273269 167.10742188 49.37695312 C167.11035589 46.86718846 167.11234063 44.35742246 167.11328125 41.84765625 C167.12046677 40.66937759 167.12765228 39.49109894 167.13505554 38.27711487 C167.13197891 37.1725444 167.12890228 36.06797394 167.12573242 34.92993164 C167.12715744 33.96350235 167.12858246 32.99707306 167.13005066 32.00135803 C166.72806377 27.4262793 165.49153505 24.03602234 162.8203125 20.3125 C159.32580569 17.78455891 157.33209078 17.46170383 153.10546875 17.6875 C149.33153521 18.53646923 147.52832978 20.40970685 144.8828125 23.1875 Z M314.8828125 23.1875 C313.5152712 25.92258259 313.7252726 28.13272342 313.68994141 31.19433594 C313.66584702 33.08705231 313.66584702 33.08705231 313.64126587 35.01800537 C313.62977768 36.40262173 313.61916926 37.78724562 313.609375 39.171875 C313.60405132 39.86863594 313.59872765 40.56539688 313.59324265 41.28327179 C313.56651299 44.97301635 313.54713973 48.66272715 313.53271484 52.35253906 C313.51938707 55.40232414 313.49155774 58.45143827 313.45068359 61.50097656 C313.40128965 65.18623633 313.37658555 68.87088851 313.36948776 72.55646515 C313.36278635 73.95828125 313.34759284 75.36008439 313.32359695 76.76171112 C312.86676798 85.42496167 312.86676798 85.42496167 316.29052734 93.03222656 C319.86460194 96.00377776 322.07565392 96.59969503 326.78125 96.53125 C330.52179602 95.91941348 332.39672462 93.91035815 334.8828125 91.1875 C337.69571914 85.31043798 337.18854772 78.968104 337.18359375 72.59765625 C337.18787888 71.37976913 337.192164 70.16188202 337.19657898 68.90708923 C337.20231249 66.33593364 337.20282977 63.76476183 337.19848633 61.19360352 C337.19532655 57.26745857 337.21879856 53.34206748 337.24414062 49.41601562 C337.24641377 46.91406345 337.24711704 44.41210925 337.24609375 41.91015625 C337.2553035 40.74017593 337.26451324 39.57019562 337.27400208 38.36476135 C337.23189624 30.92033349 336.84163457 25.48447316 331.6953125 19.75 C324.64294797 15.83201971 320.0447478 17.89966384 314.8828125 23.1875 Z M-76.1171875 77.1875 C-80.76721896 83.93407744 -81.27148956 91.00128718 -81.23071289 99.02880859 C-81.23085892 99.79046326 -81.23100494 100.55211792 -81.2311554 101.33685303 C-81.23046268 103.83657754 -81.22270049 106.33622612 -81.21484375 108.8359375 C-81.21297729 110.57614094 -81.21155446 112.31634491 -81.21055603 114.05654907 C-81.20674881 118.62348903 -81.19693392 123.19039689 -81.18585205 127.75732422 C-81.17559927 132.42284715 -81.17105014 137.08837529 -81.16601562 141.75390625 C-81.15530997 150.89845156 -81.1382552 160.0429731 -81.1171875 169.1875 C-80.10982135 169.19173194 -79.1024552 169.19596388 -78.0645628 169.20032406 C-53.5786627 169.30341426 -29.09279267 169.41214931 -4.60694408 169.52683926 C7.23411374 169.58217057 19.07517458 169.63565243 30.91625977 169.68481445 C41.23422125 169.7276574 51.55216056 169.77393569 61.8700878 169.82437855 C67.33579194 169.85097857 72.80149168 169.87583166 78.26722145 169.89657402 C83.40777644 169.91613655 88.54828921 169.94027923 93.68880653 169.96799088 C95.57906835 169.97736333 97.46933943 169.98503791 99.35961533 169.99091911 C101.93350042 169.99917695 104.50728297 170.01345277 107.08113098 170.02928162 C107.83501832 170.03025972 108.58890566 170.03123783 109.36563808 170.03224558 C112.47529367 170.05696341 114.90930052 170.19632934 117.8828125 171.1875 C118.86556838 174.13576763 119.01695975 176.11402504 119.0078125 179.1875 C119.01039063 180.05375 119.01296875 180.92 119.015625 181.8125 C118.8828125 184.1875 118.8828125 184.1875 117.8828125 187.1875 C114.23489504 188.40347249 110.87970542 188.34079005 107.08113098 188.34571838 C106.27819144 188.35065636 105.47525191 188.35559434 104.64798087 188.36068195 C101.94867231 188.37608006 99.24938758 188.38442384 96.55004883 188.39282227 C94.61859425 188.40239897 92.68714178 188.41240893 90.75569153 188.42282104 C85.50398399 188.44989866 80.25226744 188.47089276 75.00052857 188.49082303 C69.51520275 188.51266497 64.02990479 188.54006242 58.54460144 188.56687927 C48.15367178 188.61683042 37.76272667 188.66176026 27.37176675 188.70490164 C15.54360877 188.75425332 3.71547876 188.80917912 -8.11265218 188.86458123 C-32.44747121 188.97843846 -56.78231705 189.08526935 -81.1171875 189.1875 C-81.16283722 219.35408887 -81.19821952 249.52067656 -81.21931816 279.68729236 C-81.2218195 283.25075681 -81.22440815 286.8142212 -81.22705078 290.37768555 C-81.2275754 291.08709107 -81.22810002 291.79649659 -81.22864054 292.52739925 C-81.23733723 304.00588081 -81.25310314 315.48434228 -81.27149309 326.96281194 C-81.29021264 338.74549345 -81.30130857 350.52816445 -81.30536449 362.31086022 C-81.30785968 368.92702383 -81.31409778 375.54315012 -81.32864761 382.15929985 C-81.34223472 388.38821261 -81.34640782 394.61706115 -81.34340286 400.84598732 C-81.34395252 403.13042932 -81.34792319 405.4148735 -81.35559845 407.69930267 C-81.36557724 410.82288322 -81.36314557 413.94622261 -81.35769653 417.06980896 C-81.36352222 417.96963908 -81.3693479 418.8694692 -81.37535012 419.7965669 C-81.33533362 428.3078299 -80.38269086 435.73650564 -74.890625 442.4609375 C-68.43031569 448.75048973 -60.36158319 449.31142644 -51.71980572 449.31613445 C-50.99295508 449.31788749 -50.26610445 449.31964053 -49.51722804 449.32144669 C-47.08069536 449.32610006 -44.64422253 449.32364289 -42.20768738 449.32121277 C-40.44350823 449.32308107 -38.67932949 449.32538185 -36.91515142 449.32807809 C-32.06620473 449.33420007 -27.21727527 449.33406203 -22.36832559 449.33288372 C-17.13916849 449.33267981 -11.91001694 449.33819749 -6.68086243 449.34294128 C3.56435238 449.35125053 13.80956143 449.35399625 24.05477933 449.35455366 C32.38169645 449.35502868 40.70861167 449.35708273 49.03552818 449.36025429 C72.63895144 449.36906153 96.24237016 449.37367354 119.84579507 449.37292381 C121.11847225 449.37288386 122.39114943 449.3728439 123.70239258 449.37280273 C124.9766219 449.37276185 126.25085122 449.37272097 127.56369355 449.37267885 C148.21779187 449.37227234 168.87187196 449.38184305 189.52596501 449.3959411 C210.72862239 449.41029951 231.93127088 449.41721158 253.13393325 449.41634732 C265.03955619 449.41601517 276.94516002 449.41877015 288.85077858 449.42952538 C298.98687752 449.43862332 309.12294868 449.44081143 319.25904993 449.43401595 C324.43073154 449.43074722 329.60235984 449.43070685 334.77403641 449.4393692 C339.50953287 449.44721941 344.24493362 449.44581788 348.9804277 449.43708507 C350.69237605 449.43554683 352.40433149 449.43737844 354.11627147 449.44294515 C370.13171977 449.79494169 370.13171977 449.79494169 384.15625 442.9609375 C391.05631107 435.87354446 391.03294563 426.75026106 391.00306702 417.43057251 C391.00392144 416.4535605 391.00477587 415.47654849 391.00565618 414.46993005 C391.00730196 411.19949846 391.00180436 407.92911827 390.99633789 404.65869141 C390.9960558 402.31300864 390.99621418 399.96732578 390.9967804 397.62164307 C390.99706751 391.25442511 390.99118461 384.88722596 390.98420644 378.52001238 C390.97859163 372.53977157 390.97758331 366.55953075 390.97655457 360.57928781 C390.97436735 348.73628598 390.96771619 336.89329105 390.95825195 325.05029297 C390.94906931 313.54768915 390.94199264 302.04508721 390.93774414 290.54248047 C390.93748142 289.83315186 390.93721869 289.12382326 390.93694801 288.39299984 C390.93564295 284.8344147 390.93437924 281.27582955 390.93313611 277.71724439 C390.92277376 248.20732514 390.90508994 218.69741269 390.8828125 189.1875 C389.87544635 189.18326806 388.8680802 189.17903612 387.8301878 189.17467594 C363.3442877 189.07158574 338.85841767 188.96285069 314.37256908 188.84816074 C302.53151126 188.79282943 290.69045042 188.73934757 278.84936523 188.69018555 C268.53140375 188.6473426 258.21346444 188.60106431 247.8955372 188.55062145 C242.42983306 188.52402143 236.96413332 188.49916834 231.49840355 188.47842598 C226.35784856 188.45886345 221.21733579 188.43472077 216.07681847 188.40700912 C214.18655665 188.39763667 212.29628557 188.38996209 210.40600967 188.38408089 C207.83212458 188.37582305 205.25834203 188.36154723 202.68449402 188.34571838 C201.93060668 188.34474028 201.17671934 188.34376217 200.39998692 188.34275442 C197.29033133 188.31803659 194.85632448 188.17867066 191.8828125 187.1875 C190.90005662 184.23923237 190.74866525 182.26097496 190.7578125 179.1875 C190.75523437 178.32125 190.75265625 177.455 190.75 176.5625 C190.8828125 174.1875 190.8828125 174.1875 191.8828125 171.1875 C195.53072996 169.97152751 198.88591958 170.03420995 202.68449402 170.02928162 C203.48743356 170.02434364 204.29037309 170.01940566 205.11764413 170.01431805 C207.81695269 169.99891994 210.51623742 169.99057616 213.21557617 169.98217773 C215.14703075 169.97260103 217.07848322 169.96259107 219.00993347 169.95217896 C224.26164101 169.92510134 229.51335756 169.90410724 234.76509643 169.88417697 C240.25042225 169.86233503 245.73572021 169.83493758 251.22102356 169.80812073 C261.61195322 169.75816958 272.00289833 169.71323974 282.39385825 169.67009836 C294.22201623 169.62074668 306.05014624 169.56582088 317.87827718 169.51041877 C342.21309621 169.39656154 366.54794205 169.28973065 390.8828125 169.1875 C390.92927754 159.17301944 390.96475348 149.1585648 390.98643684 139.14399815 C390.99684695 134.49317666 391.01095522 129.84242925 391.03369141 125.19165039 C391.05551903 120.69829015 391.06740196 116.20500091 391.07256699 111.71159172 C391.076245 110.00250062 391.083427 108.29341314 391.09427261 106.58435249 C391.55485488 90.24025491 391.55485488 90.24025491 384.65625 75.9140625 C378.436049 69.8582721 370.99895304 69.1494511 362.6796875 69.171875 C361.59526367 69.17413086 360.51083984 69.17638672 359.39355469 69.17871094 C358.56500977 69.18161133 357.73646484 69.18451172 356.8828125 69.1875 C356.86879395 70.19949463 356.86879395 70.19949463 356.85449219 71.23193359 C356.80020481 74.3428135 356.71667535 77.45228229 356.6328125 80.5625 C356.61863281 81.62339844 356.60445313 82.68429688 356.58984375 83.77734375 C356.28743615 93.63583165 354.07066972 102.16300317 346.8828125 109.1875 C340.06917257 114.25188248 333.62885566 116.58286294 325.0703125 116.5625 C324.36471191 116.56088867 323.65911133 116.55927734 322.93212891 116.55761719 C317.06757132 116.4200718 312.8280042 115.23969358 307.8828125 112.1875 C306.8309375 111.630625 305.7790625 111.07375 304.6953125 110.5 C298.94492143 105.77190068 296.21224768 100.17580553 293.8828125 93.1875 C293.5528125 85.2675 293.2228125 77.3475 292.8828125 69.1875 C258.2328125 69.1875 223.5828125 69.1875 187.8828125 69.1875 C187.5528125 75.1275 187.2228125 81.0675 186.8828125 87.1875 C185.01529281 97.50800357 182.22088 105.45025587 173.3828125 111.625 C165.04739942 116.92523549 156.40621289 116.93759834 146.8828125 116.1875 C139.51908471 114.44811875 132.96216654 109.47301052 128.56640625 103.35546875 C121.70688884 91.73731933 123.53645225 84.87485396 122.8828125 69.1875 C87.9028125 69.1875 52.9228125 69.1875 16.8828125 69.1875 C16.5528125 77.1075 16.2228125 85.0275 15.8828125 93.1875 C10.985469 104.20652287 7.3265108 110.73005251 -3.921875 115.3359375 C-12.64564163 117.6608533 -22.90126922 117.30794564 -31.07421875 113.37890625 C-37.99406078 109.34343432 -41.99666131 103.96244372 -45.21875 96.70703125 C-46.56127598 91.44783165 -46.58930032 86.22088392 -46.7421875 80.8125 C-46.80019531 79.13607422 -46.80019531 79.13607422 -46.859375 77.42578125 C-46.95325305 74.67984839 -47.03893661 71.93391524 -47.1171875 69.1875 C-49.01819781 69.17050646 -50.9192526 69.1584491 -52.8203125 69.1484375 C-53.87895508 69.14118652 -54.93759766 69.13393555 -56.02832031 69.12646484 C-64.14724457 69.28689253 -70.35218447 71.26598105 -76.1171875 77.1875 Z M-81.1171875 464.1875 C-80.34386907 472.18734583 -79.2344407 478.59573771 -73.1171875 484.1875 C-66.45287203 488.74100639 -59.66471446 489.31180609 -51.71980572 489.31613445 C-50.99295508 489.31788749 -50.26610445 489.31964053 -49.51722804 489.32144669 C-47.08069536 489.32610006 -44.64422253 489.32364289 -42.20768738 489.32121277 C-40.44350823 489.32308107 -38.67932949 489.32538185 -36.91515142 489.32807809 C-32.06620473 489.33420007 -27.21727527 489.33406203 -22.36832559 489.33288372 C-17.13916849 489.33267981 -11.91001694 489.33819749 -6.68086243 489.34294128 C3.56435238 489.35125053 13.80956143 489.35399625 24.05477933 489.35455366 C32.38169645 489.35502868 40.70861167 489.35708273 49.03552818 489.36025429 C72.63895144 489.36906153 96.24237016 489.37367354 119.84579507 489.37292381 C121.11847225 489.37288386 122.39114943 489.3728439 123.70239258 489.37280273 C124.9766219 489.37276185 126.25085122 489.37272097 127.56369355 489.37267885 C148.21779187 489.37227234 168.87187196 489.38184305 189.52596501 489.3959411 C210.72862239 489.41029951 231.93127088 489.41721158 253.13393325 489.41634732 C265.03955619 489.41601517 276.94516002 489.41877015 288.85077858 489.42952538 C298.98687752 489.43862332 309.12294868 489.44081143 319.25904993 489.43401595 C324.43073154 489.43074722 329.60235984 489.43070685 334.77403641 489.4393692 C339.50953287 489.44721941 344.24493362 489.44581788 348.9804277 489.43708507 C350.69237605 489.43554683 352.40433149 489.43737844 354.11627147 489.44294515 C370.14002914 489.80379348 370.14002914 489.80379348 384.15625 482.94921875 C389.38382628 477.61519861 390.54714939 471.43782312 390.8828125 464.1875 C389.97789062 464.49494141 389.97789062 464.49494141 389.0546875 464.80859375 C388.25546875 465.07800781 387.45625 465.34742188 386.6328125 465.625 C385.84390625 465.89183594 385.055 466.15867187 384.2421875 466.43359375 C383.46359375 466.68238281 382.685 466.93117188 381.8828125 467.1875 C381.32732839 467.36528101 380.77184428 467.54306201 380.19952732 467.72623032 C376.95552524 468.3721276 373.74944443 468.32868265 370.45600033 468.32172108 C369.70166585 468.32407331 368.94733137 468.32642554 368.17013827 468.32884905 C365.6280545 468.33553617 363.08602188 468.33508091 360.54393005 468.33467102 C358.7086557 468.33796983 356.87338207 468.34169543 355.03810936 468.3458125 C349.9832805 468.35583877 344.92846351 468.3595503 339.87362611 468.36220181 C334.42625891 468.36610301 328.97890112 468.37568149 323.53153992 468.38441467 C310.37026734 468.40418445 297.20899399 468.41424602 284.04771027 468.42314246 C277.85129041 468.42752459 271.65487141 468.4328916 265.45845222 468.43813133 C244.86253124 468.45514424 224.26661079 468.46963865 203.67068386 468.47688007 C198.32497087 468.47879 192.97925789 468.48070867 187.63354492 468.48266602 C186.96941498 468.48290617 186.30528503 468.48314632 185.62102993 468.48339374 C164.0928163 468.49128505 142.5646578 468.51471321 121.03646823 468.54722196 C98.27224492 468.58153437 75.50805236 468.60123141 52.74380261 468.60452431 C40.33615459 468.60669011 27.92858759 468.61544906 15.52096367 468.64098549 C4.95446479 468.66268228 -5.6119334 468.6707479 -16.17845202 468.66101871 C-21.5691556 468.65647107 -26.9596514 468.6583874 -32.35032654 468.67778015 C-37.28840634 468.69539118 -42.22612644 468.69443065 -47.16420995 468.67888286 C-48.94758957 468.67650368 -50.73099396 468.68084643 -52.5143357 468.69271151 C-61.23357469 468.74711483 -69.01309903 468.63053241 -77.15644497 465.04535264 C-79.065873 464.05389009 -79.065873 464.05389009 -81.1171875 464.1875 Z " fill="#9ea4aa" transform="translate(101.1171875,2.8125)"/>
<path d="M0 0 C6.61632779 4.21514585 10.44611404 10.5786928 13.8046875 17.48828125 C14.17353058 18.2282988 14.54237366 18.96831635 14.9223938 19.73075867 C15.69160962 21.27885281 16.45604386 22.82933149 17.21582031 24.38208008 C18.3829147 26.7661678 19.5651561 29.14226915 20.75 31.51757812 C21.49828047 33.02820795 22.24570779 34.53926076 22.9921875 36.05078125 C23.34521942 36.76220779 23.69825134 37.47363434 24.0619812 38.20661926 C26.5 43.20408738 26.5 43.20408738 26.5 45.4375 C27.13276855 45.51266846 27.76553711 45.58783691 28.41748047 45.6652832 C39.1259601 46.94646593 49.8398601 48.23312245 60.5 49.875 C61.19722168 49.97272705 61.89444336 50.0704541 62.61279297 50.17114258 C69.21819765 51.23784892 74.5903301 53.5278301 79.3125 58.25 C84.35670793 65.60013155 85.56508534 71.53812028 84.5 80.4375 C82.2360334 87.83799297 76.81439939 92.26129942 71.24868774 97.38101196 C69.08161995 99.38567024 66.9477365 101.42436224 64.81396484 103.46435547 C63.6876295 104.53012464 62.55079424 105.58490507 61.40380859 106.62841797 C54.63098436 112.46549914 54.63098436 112.46549914 50.92651367 120.26757812 C51.15494842 123.13874454 51.72359458 125.66626088 52.5 128.4375 C52.83671319 130.29465304 53.16084042 132.15412988 53.47265625 134.015625 C53.83581853 135.90627286 54.19910224 137.79689739 54.5625 139.6875 C59.03086435 164.39316631 59.03086435 164.39316631 53.82421875 172.796875 C48.36793244 179.55687574 42.2232321 182.90423186 33.625 183.875 C25.99512955 183.51777917 18.98163664 179.25508055 12.390625 175.73046875 C11.76972992 175.39883224 11.14883484 175.06719574 10.50912476 174.72550964 C7.93172064 173.34392369 5.35700206 171.95819217 2.79345703 170.55102539 C0.89589936 169.51272564 -1.01169655 168.49531594 -2.921875 167.48046875 C-4.04174805 166.87227295 -5.16162109 166.26407715 -6.31542969 165.63745117 C-10.57187852 164.03361447 -13.11340527 164.41704167 -17.26416016 166.19181824 C-19.26090145 167.15039711 -21.21189826 168.17245605 -23.1640625 169.21875 C-23.8785556 169.59229614 -24.59304871 169.96584229 -25.32919312 170.35070801 C-27.59868312 171.53846804 -29.86214044 172.73716287 -32.125 173.9375 C-34.39570956 175.13638459 -36.66763898 176.33278759 -38.94223022 177.52429199 C-40.35370401 178.2642101 -41.76285629 179.00857826 -43.16934204 179.75793457 C-49.75693018 183.2217199 -55.6387151 184.6319002 -62.99609375 182.82421875 C-69.50094818 180.57672719 -73.72278988 177.19989157 -77.5 171.4375 C-82.43771963 161.1186138 -79.06445069 148.16148438 -77 137.4375 C-76.52670357 134.91751632 -76.0577862 132.39670531 -75.59375 129.875 C-75.27954102 128.23337891 -75.27954102 128.23337891 -74.95898438 126.55859375 C-74.73178711 125.01365234 -74.73178711 125.01365234 -74.5 123.4375 C-74.34426514 122.4570874 -74.18853027 121.4766748 -74.02807617 120.46655273 C-74.75366736 115.80933089 -77.60069766 113.66568051 -80.95703125 110.53515625 C-81.61579758 109.8943663 -82.2745639 109.25357635 -82.95329285 108.59336853 C-85.05926526 106.54739107 -87.18382384 104.52232656 -89.3125 102.5 C-91.42874282 100.47967617 -93.54007591 98.4550708 -95.63957214 96.41734314 C-96.94493538 95.15122117 -98.26005042 93.89505165 -99.58613586 92.65065002 C-104.28394946 88.10673134 -106.92295323 84.0777034 -107.96875 77.48046875 C-108.05986657 69.15469199 -106.44500236 62.93385209 -100.87890625 56.58984375 C-91.17713279 48.09818397 -74.17110785 48.4515294 -62.01074219 46.79443359 C-60.82770508 46.63281738 -59.64466797 46.47120117 -58.42578125 46.3046875 C-57.35755127 46.16144043 -56.28932129 46.01819336 -55.1887207 45.87060547 C-52.41026545 45.49721734 -52.41026545 45.49721734 -49.5 44.4375 C-48.10300187 41.95021254 -46.8819043 39.51707568 -45.69921875 36.9296875 C-45.34036087 36.17084259 -44.98150299 35.41199768 -44.61177063 34.63015747 C-43.075934 31.38207237 -41.56379696 28.12313501 -40.05102539 24.86425781 C-38.94274177 22.48590085 -37.82134872 20.1140357 -36.69921875 17.7421875 C-36.36774338 17.01587128 -36.03626801 16.28955505 -35.69474792 15.54122925 C-32.44158675 8.6749603 -28.11574451 2.27257112 -20.96875 -0.90234375 C-14.28069099 -2.69076459 -6.40468071 -2.84515624 0 0 Z M-13.5 19.4375 C-13.75420715 19.95701736 -14.00841431 20.47653473 -14.27032471 21.01179504 C-16.91889267 26.41957737 -19.58153327 31.82025875 -22.25244141 37.21704102 C-23.24727947 39.2318557 -24.2385195 41.24845113 -25.22607422 43.2668457 C-26.6464857 46.1683395 -28.0797283 49.06317587 -29.515625 51.95703125 C-30.17368134 53.31185356 -30.17368134 53.31185356 -30.84503174 54.69404602 C-31.47523224 55.9550135 -31.47523224 55.9550135 -32.11816406 57.24145508 C-32.48234436 57.98091873 -32.84652466 58.72038239 -33.22174072 59.48225403 C-35.18863273 62.49084372 -37.24455712 64.08603829 -40.71389771 65.05728149 C-41.91730301 65.22929581 -41.91730301 65.22929581 -43.14501953 65.40478516 C-44.05921661 65.54147614 -44.9734137 65.67816711 -45.91531372 65.81900024 C-46.89458832 65.95349579 -47.87386292 66.08799133 -48.8828125 66.2265625 C-49.89342743 66.3753183 -50.90404236 66.5240741 -51.94528198 66.67733765 C-55.17035875 67.15013796 -58.39744117 67.60698031 -61.625 68.0625 C-64.85921054 68.52802667 -68.09290391 68.99684876 -71.32614136 69.46908569 C-73.33762958 69.76190934 -75.34976888 70.05030054 -77.36257935 70.33389282 C-78.72441849 70.52947281 -78.72441849 70.52947281 -80.11376953 70.72900391 C-80.91444855 70.84208893 -81.71512756 70.95517395 -82.54006958 71.07168579 C-84.5691366 71.35727083 -84.5691366 71.35727083 -86.5 72.4375 C-85.91905877 75.62993789 -85.0433322 77.26932218 -82.75610352 79.55371094 C-81.89499718 80.42416046 -81.89499718 80.42416046 -81.01649475 81.31219482 C-80.08213844 82.23273651 -80.08213844 82.23273651 -79.12890625 83.171875 C-78.49137924 83.80990051 -77.85385223 84.44792603 -77.19700623 85.10528564 C-75.84969116 86.45026246 -74.49868722 87.79155267 -73.14428711 89.12939453 C-71.06510177 91.18492783 -68.99961391 93.25351643 -66.93554688 95.32421875 C-65.62579144 96.62839948 -64.31527044 97.93181191 -63.00390625 99.234375 C-62.38302628 99.85616638 -61.7621463 100.47795776 -61.12245178 101.11859131 C-58.3245551 104.32998485 -58.3245551 104.32998485 -54.5 105.4375 C-49.59644055 114.93814643 -53.66932859 127.09414606 -55.5 137.0625 C-55.9320716 139.42584463 -56.36168862 141.78951174 -56.78393555 144.15463257 C-57.04515874 145.61713871 -57.31189132 147.07867599 -57.58520508 148.53897095 C-58.37127355 152.93081881 -58.62139246 157.00017202 -58.5 161.4375 C-55.50331073 162.7999873 -55.50331073 162.7999873 -52.671875 161.26928711 C-51.54265625 160.6738208 -50.4134375 160.07835449 -49.25 159.46484375 C-48.63664795 159.14471817 -48.0232959 158.82459259 -47.39135742 158.49476624 C-45.42250876 157.46416778 -43.46136399 156.41975996 -41.5 155.375 C-40.21010714 154.69766861 -38.91974681 154.02122666 -37.62890625 153.34570312 C-36.35658276 152.67744129 -35.08444599 152.00882382 -33.8125 151.33984375 C-32.87216919 150.84585587 -32.87216919 150.84585587 -31.9128418 150.34188843 C-29.03149071 148.81794474 -26.19880172 147.25970409 -23.390625 145.60205078 C-22.45734375 145.05403809 -21.5240625 144.50602539 -20.5625 143.94140625 C-19.76972656 143.45615479 -18.97695312 142.97090332 -18.16015625 142.47094727 C-13.91200795 140.82057908 -9.87404325 140.64679725 -5.57174683 142.07972717 C-3.57690303 142.97811086 -1.66659424 143.96785235 0.25390625 145.015625 C0.95845444 145.38347107 1.66300262 145.75131714 2.38890076 146.13031006 C4.62181437 147.30089262 6.84190455 148.49374576 9.0625 149.6875 C10.55586528 150.47412996 12.05000063 151.25929981 13.54492188 152.04296875 C16.30232933 153.49421773 19.05669912 154.95064089 21.80297852 156.42285156 C22.41577667 156.75063599 23.02857483 157.07842041 23.65994263 157.4161377 C24.9310716 158.1217044 26.18548674 158.8579368 27.42477417 159.61804199 C29.07623642 160.626964 30.78537757 161.54010315 32.5 162.4375 C33.49 162.1075 34.48 161.7775 35.5 161.4375 C34.90796318 150.73814764 33.19893422 140.42209924 31.22851562 129.90234375 C30.59784124 126.41984436 30.02166166 122.93788686 29.5 119.4375 C29.36867676 118.57576172 29.23735352 117.71402344 29.10205078 116.82617188 C28.7391385 112.51554972 29.34500188 110.080106 32.12890625 106.73828125 C33.56229927 105.28105252 35.02387024 103.8514208 36.5 102.4375 C37.53838634 101.4036256 38.57450915 100.36747496 39.60888672 99.32958984 C43.82774027 95.11148994 48.07891105 90.92634896 52.34887695 86.76000977 C54.18586956 84.96513807 56.01345411 83.16111957 57.83984375 81.35546875 C58.40847641 80.805457 58.97710907 80.25544525 59.56297302 79.68876648 C60.9332547 78.32762312 62.22455126 76.88788396 63.5 75.4375 C63.5 74.4475 63.5 73.4575 63.5 72.4375 C57.72932263 70.88850482 52.06583105 69.8672604 46.14453125 69.10546875 C44.37030376 68.86233996 42.5962189 68.61816844 40.82226562 68.37304688 C38.05850908 67.99468277 35.2945284 67.62269821 32.52758789 67.26831055 C29.83440516 66.92073393 27.14599596 66.54663001 24.45703125 66.16796875 C23.63298294 66.06880661 22.80893463 65.96964447 21.95991516 65.86747742 C16.6052764 65.08434971 13.88892563 63.92141139 10.5 59.4375 C8.70970874 56.4350144 7.16114961 53.34364292 5.63671875 50.19921875 C5.19987259 49.31845169 4.76302643 48.43768463 4.3129425 47.53022766 C2.92828491 44.73306262 1.55774444 41.92924915 0.1875 39.125 C-0.75232966 37.22024617 -1.69307521 35.31594395 -2.63476562 33.41210938 C-4.93381359 28.75906796 -7.22023111 24.10001553 -9.5 19.4375 C-10.82 19.4375 -12.14 19.4375 -13.5 19.4375 Z " fill="#9ea4aa" transform="translate(267.5,227.5625)"/>
<path d="M0 0 C3.125 1.875 3.125 1.875 5 5 C5.98876625 10.02622846 5.7769173 13.70513784 3.125 18.125 C-1.29486216 20.7769173 -4.97377154 20.98876625 -10 20 C-13.125 18.125 -13.125 18.125 -15 15 C-15.98876625 9.97377154 -15.7769173 6.29486216 -13.125 1.875 C-8.70513784 -0.7769173 -5.02622846 -0.98876625 0 0 Z " fill="#9ea4aa" transform="translate(261,172)"/>
</svg>
