<?xml version="1.0" encoding="UTF-8"?>
<svg version="1.1" xmlns="http://www.w3.org/2000/svg" width="512" height="512">
<path d="M0 0 C5.52116444 4.75324614 10.77250974 9.70857628 15.83203125 14.9453125 C16.32248428 15.45065018 16.81293732 15.95598785 17.31825256 16.47663879 C19.33594525 18.55746239 21.35208457 20.63899371 23.34545898 22.74316406 C24.82740743 24.30350869 26.32752875 25.84424632 27.83203125 27.3828125 C29.14264526 28.75010498 29.14264526 28.75010498 30.47973633 30.14501953 C32.8064779 32.20476361 32.8064779 32.20476361 35.42895508 32.16699219 C39.11547125 30.49368981 41.56874554 27.84299759 44.3046875 24.9453125 C44.90572296 24.32913055 45.50675842 23.71294861 46.12600708 23.07809448 C48.68396511 20.45536024 51.21834436 17.81033951 53.75292969 15.16503906 C77.66144716 -9.69531043 105.706893 -25.25011837 140.76953125 -26.3515625 C173.11142905 -26.69140731 201.89511685 -14.3338161 225.1875 7.75 C237.81421968 20.89505792 246.50110946 36.06855182 252.375 53.25 C252.61387939 53.94585205 252.85275879 54.6417041 253.09887695 55.35864258 C262.13471602 83.4145468 258.17565697 115.72928113 245.15234375 141.82421875 C235.96190615 158.67649961 222.61685446 171.80866127 209.1262207 185.21435547 C207.23234824 187.10738018 205.33908235 189.00099406 203.44654846 190.89535522 C199.39570071 194.9477644 195.33946412 198.99471142 191.27935219 203.03783798 C185.40936451 208.88328488 179.54782979 214.73714982 173.68822434 220.59300186 C164.17765901 230.09702615 154.66043521 239.59435302 145.13891602 249.08740234 C135.89806536 258.30065129 126.66041911 267.51709401 117.42700195 276.73779297 C116.85638876 277.30761799 116.28577557 277.87744301 115.69787107 278.46453546 C112.83485458 281.3236364 109.97190031 284.18279965 107.10897696 287.04199386 C83.41562098 310.70432714 59.71141432 334.3557626 36 358 C32.97915312 356.64545937 30.87911249 355.13065781 28.53999996 352.79726887 C27.8700075 352.1337253 27.20001505 351.47018174 26.50971979 350.78653079 C25.7818124 350.0555262 25.05390501 349.3245216 24.30393982 348.57136536 C23.52424129 347.79619794 22.74454276 347.02103052 21.94121701 346.22237319 C19.32116464 343.61501399 16.70834703 341.00052358 14.09545898 338.38598633 C12.22151439 336.51802429 10.34719102 334.65044922 8.47242737 332.78330994 C3.90214232 328.22964478 -0.66256502 323.67042774 -5.22510434 319.10900299 C-8.93869022 315.39636809 -12.6538528 311.68531839 -16.37013054 307.97537804 C-26.92017166 297.44296005 -37.46599866 286.90634831 -48.00648225 276.36436538 C-48.57483383 275.79593388 -49.14318541 275.22750239 -49.72875977 274.6418457 C-50.29781038 274.07271333 -50.866861 273.50358095 -51.45315557 272.91720214 C-60.65212839 263.71741842 -69.86100816 254.52762392 -79.07449961 245.34238259 C-88.54840297 235.897297 -98.01473612 226.44468118 -107.47338051 216.98431414 C-112.7780857 211.6789476 -118.08576757 206.37664372 -123.40161324 201.08243752 C-127.93347527 196.56890566 -132.45817662 192.04833796 -136.97413755 187.51889435 C-139.27328497 185.21327344 -141.57645077 182.91195595 -143.88649368 180.61724472 C-162.63381285 161.98622818 -176.74832035 143.73796907 -184 118 C-184.3196875 116.92621094 -184.639375 115.85242188 -184.96875 114.74609375 C-189.3150598 97.38097635 -189.10996261 76.16370504 -184 59 C-183.48953125 57.18822266 -183.48953125 57.18822266 -182.96875 55.33984375 C-173.95980562 25.9085964 -153.99258717 1.74826887 -127 -13 C-86.13914829 -33.97316962 -35.35927061 -29.99488134 0 0 Z M45 48 C43.40964756 50.3614324 42.21762255 52.46132749 41 55 C37.05686415 62.76714372 32.64431008 69.37199459 27 76 C26.11509809 77.06966165 25.23102776 78.14001163 24.34765625 79.2109375 C18.91303692 85.73898366 13.23191809 91.96863838 7.25 98 C6.64857178 98.61061279 6.04714355 99.22122559 5.42749023 99.8503418 C1.2441886 104.00506506 -3.20187985 107.57769614 -8 111 C-8.495 109.783125 -8.99 108.56625 -9.5 107.3125 C-11.49738885 103.4875683 -13.3928688 100.9677627 -17.1875 98.84765625 C-21.17080137 97.64713348 -24.98114176 97.49420806 -29.125 97.4375 C-29.90117676 97.42267578 -30.67735352 97.40785156 -31.47705078 97.39257812 C-37.89451836 97.50798538 -41.28457075 99.81257088 -46.25 103.8125 C-50.56965166 109.21206457 -50.29344531 115.97992486 -50.2746582 122.57202148 C-50.27976913 123.50628967 -50.28488007 124.44055786 -50.29014587 125.40313721 C-50.30398815 128.47585547 -50.30308923 131.54834811 -50.30078125 134.62109375 C-50.30467091 136.76668887 -50.30900613 138.91228322 -50.31376648 141.05787659 C-50.321217 145.54910786 -50.3209457 150.04026051 -50.31567383 154.53149414 C-50.30987851 160.27576984 -50.32681757 166.01972317 -50.3500185 171.76394558 C-50.36477699 176.19328175 -50.36562469 180.62254064 -50.36250877 185.05189705 C-50.36302084 187.16930848 -50.36823705 189.28672438 -50.37832069 191.40411186 C-50.3907097 194.36914685 -50.38387864 197.33355836 -50.37231445 200.29858398 C-50.37995819 201.1658461 -50.38760193 202.03310822 -50.39547729 202.926651 C-50.34133728 209.23308833 -49.46322896 215.04972349 -45.28125 220.05859375 C-44.6934375 220.51363281 -44.105625 220.96867188 -43.5 221.4375 C-42.61828125 222.14712891 -42.61828125 222.14712891 -41.71875 222.87109375 C-37.79745745 225.44666999 -33.70047976 225.2172676 -29.1875 225.25 C-28.48818359 225.270625 -27.78886719 225.29125 -27.06835938 225.3125 C-21.33169472 225.35543107 -17.36977565 224.14547589 -13.1015625 220.28125 C-12.61429688 219.6934375 -12.12703125 219.105625 -11.625 218.5 C-11.12226563 217.9121875 -10.61953125 217.324375 -10.1015625 216.71875 C-8.73020172 214.91928076 -8.73020172 214.91928076 -9 212 C-7.96746094 212.44730469 -6.93492187 212.89460937 -5.87109375 213.35546875 C18.29080716 223.46662283 42.15943784 225.24447231 68.04614258 225.35009766 C70.9722407 225.3634514 73.8976439 225.3913563 76.82348633 225.43212891 C80.38716014 225.48174987 83.95020348 225.50625144 87.51420784 225.51332474 C89.50713347 225.52318295 91.49989223 225.55733671 93.49253845 225.59213257 C101.29770873 225.57406926 107.58680582 224.73120621 114 220 C117.57428504 215.85301369 119.88403996 211.56608197 120 206 C118.99572955 199.67309614 116.95859818 196.00033454 113 191 C113.78375 190.21625 114.5675 189.4325 115.375 188.625 C118.7438165 184.53429425 119.82599668 180.25173649 120 175 C119.06227488 169.40903512 116.88987505 165.15814229 113 161 C113.78375 160.21625 114.5675 159.4325 115.375 158.625 C118.74110532 154.53758639 119.83448382 150.24922753 120 145 C119.10548993 139.94407353 117.64434029 136.58257181 114 133 C114.10212498 130.03837549 115.24656348 128.66097522 117 126.25 C119.70701885 121.85109437 120.62514576 117.94316412 119.55859375 112.921875 C117.55269132 106.91563001 114.59641527 102.37137325 108.87670898 99.3503418 C104.65015837 97.64087991 100.73082386 97.61675222 96.22265625 97.70703125 C95.00563271 97.71339851 95.00563271 97.71339851 93.76402283 97.71989441 C91.19649744 97.73656133 88.62978436 97.77418952 86.0625 97.8125 C84.31186037 97.8275624 82.56120832 97.84124807 80.81054688 97.85351562 C76.54005608 97.88642532 72.27016531 97.93812274 68 98 C68.52400391 96.78763672 68.52400391 96.78763672 69.05859375 95.55078125 C69.51363281 94.48214844 69.96867187 93.41351563 70.4375 92.3125 C70.88996094 91.25675781 71.34242188 90.20101562 71.80859375 89.11328125 C76.30224327 77.3708594 75.01210859 63.34233666 70 52 C68.08600895 48.71265823 65.99393507 46.59098842 62.6875 44.625 C55.875347 43.04077837 50.38516863 43.34854329 45 48 Z " fill="#9ea4aa" transform="translate(221,89)"/>
<path d="M0 0 C5.12531606 5.31191738 6.10418749 14.493604 6.375 21.625 C5.99255674 30.34151936 3.0796958 37.59856878 -1.6953125 44.80859375 C-3.33320376 47.5596626 -4 49.81110256 -4 53 C-3.45178085 52.99333817 -2.90356171 52.98667633 -2.33872986 52.97981262 C3.38797111 52.91323385 9.11456137 52.86810622 14.84155273 52.83520508 C16.97636382 52.82015638 19.11114419 52.79971264 21.24584961 52.77368164 C24.32152914 52.73712614 27.39679844 52.7202341 30.47265625 52.70703125 C31.42084732 52.69154739 32.36903839 52.67606354 33.34596252 52.66011047 C39.00594387 52.6586861 43.02542448 53.21740189 48 56 C50.73856604 59.9753378 51.6983356 63.21141301 51 68 C48.62280016 72.57831081 46.868167 74.45826907 42 76 C39.50053406 76.2784729 39.50053406 76.2784729 36.8425293 76.31884766 C35.84186935 76.33871735 34.84120941 76.35858704 33.81022644 76.37905884 C32.7423439 76.39061005 31.67446136 76.40216125 30.57421875 76.4140625 C28.92012749 76.44311172 28.92012749 76.44311172 27.23262024 76.4727478 C23.71765834 76.53242923 20.20266349 76.57888375 16.6875 76.625 C14.30141817 76.66319026 11.91534997 76.7022426 9.52929688 76.7421875 C3.6863191 76.83812143 -2.15674106 76.92320247 -8 77 C-8.59070014 78.94603274 -8.59070014 78.94603274 -9 81 C-7.38581662 82.61418338 -5.62387079 82.1410101 -3.3918457 82.15771484 C-2.41024979 82.16797699 -1.42865387 82.17823914 -0.41731262 82.18881226 C0.65239273 82.19611359 1.72209808 82.20341492 2.82421875 82.2109375 C5.07227279 82.2390158 7.32031956 82.26768033 9.56835938 82.296875 C13.12556686 82.33809238 16.68264024 82.37496393 20.23999023 82.40136719 C23.66418805 82.42901051 27.08776188 82.47489655 30.51171875 82.5234375 C31.57130295 82.52669037 32.63088715 82.52994324 33.72257996 82.53329468 C39.20367657 82.62433774 43.30122743 82.84517132 48 86 C50.40777323 88.88932788 50.96115399 90.69478136 51.4375 94.4375 C50.909287 98.73866297 49.862816 100.76049769 47 104 C41.44496504 106.59812573 35.7047849 106.34737005 29.6953125 106.4140625 C28.61619598 106.43342865 27.53707947 106.4527948 26.42526245 106.4727478 C22.99192105 106.53233942 19.55854576 106.57884761 16.125 106.625 C13.79165236 106.66319853 11.45831854 106.70225135 9.125 106.7421875 C3.41678968 106.83802417 -2.29150444 106.92313112 -8 107 C-8.59070014 108.94603274 -8.59070014 108.94603274 -9 111 C-7.37161271 112.62838729 -5.54764678 112.13301596 -3.30004883 112.1418457 C-2.29843216 112.14888016 -1.29681549 112.15591461 -0.2648468 112.16316223 C1.3725219 112.16940865 1.3725219 112.16940865 3.04296875 112.17578125 C5.33659765 112.19898642 7.63021746 112.22310404 9.92382812 112.24804688 C13.55352789 112.28313422 17.18289562 112.31248295 20.81274414 112.32592773 C24.30656633 112.34141559 27.79940631 112.38164315 31.29296875 112.42578125 C32.91515572 112.42291862 32.91515572 112.42291862 34.57011414 112.41999817 C40.67288015 112.51891949 44.36665573 112.89225492 49 117 C51.00542966 119.86895744 51.26640265 121.98701218 50.9375 125.4375 C50.88464844 126.17871094 50.83179688 126.91992188 50.77734375 127.68359375 C49.63628761 131.08382636 48.06847758 133.20568997 45 135 C40.90804294 135.76794098 36.85315431 135.72117032 32.69921875 135.70703125 C31.50770706 135.72215256 30.31619537 135.73727386 29.08857727 135.75285339 C25.28802662 135.79579421 21.48826927 135.80457523 17.6875 135.8125 C15.10870277 135.83563911 12.52992448 135.86100321 9.95117188 135.88867188 C3.63410711 135.9515877 -2.68264684 135.98647104 -9 136 C-9.042721 137.66611905 -9.04063832 139.33382885 -9 141 C-7.35761844 142.64238156 -5.47093362 142.12481635 -3.20825195 142.12597656 C-2.18661453 142.12978333 -1.16497711 142.13359009 -0.11238098 142.13751221 C1.00107193 142.13853943 2.11452484 142.13956665 3.26171875 142.140625 C5.60092116 142.15895716 7.94011414 142.17852785 10.27929688 142.19921875 C13.98152487 142.228175 17.68314952 142.24999943 21.38549805 142.25048828 C24.94895459 142.25382374 28.51100606 142.28839059 32.07421875 142.328125 C33.17755051 142.3210553 34.28088226 142.3139856 35.41764832 142.30670166 C44.0001172 142.44250747 44.0001172 142.44250747 47.68286133 145.41699219 C50.85883314 148.95737589 51.39434464 151.09494789 51.359375 155.89453125 C50.72418186 159.61593453 48.66020984 161.40312849 46 164 C43.19204005 165.40397997 40.84987344 165.14280243 37.70874023 165.16113281 C37.06275879 165.16609772 36.41677734 165.17106262 35.7512207 165.17617798 C33.60366756 165.19083097 31.4561888 165.19761429 29.30859375 165.203125 C28.57039965 165.20595238 27.83220554 165.20877975 27.07164192 165.21169281 C23.14875046 165.22671481 19.22589591 165.23591926 15.30297852 165.24023438 C11.29585197 165.24565783 7.28907589 165.26954425 3.28205776 165.29820633 C0.1665611 165.31708994 -2.94885646 165.32205219 -6.06440544 165.32357025 C-7.53802296 165.32655069 -9.01164071 165.33441778 -10.48520088 165.34775543 C-24.10238574 165.46199087 -37.36462906 163.83008735 -50.375 159.625 C-51.57898438 159.24601563 -52.78296875 158.86703125 -54.0234375 158.4765625 C-57.35796392 157.31292232 -60.53900957 155.87923234 -63.74853516 154.40771484 C-64.73359039 153.95697601 -65.71864563 153.50623718 -66.73355103 153.0418396 C-67.85544327 152.526129 -67.85544327 152.526129 -69 152 C-69.23224053 141.334051 -69.40965214 130.66870834 -69.51812172 120.000741 C-69.5701976 115.04637586 -69.64076174 110.0937468 -69.75439453 105.14038086 C-69.86347809 100.35508255 -69.92292834 95.57144786 -69.94877243 90.78500175 C-69.96717544 88.96401217 -70.00311619 87.1431084 -70.05730057 85.32283211 C-70.46428978 71.07690671 -70.46428978 71.07690671 -66.83685303 65.93185425 C-64.33294234 63.65433999 -61.84774463 61.81827915 -59 60 C-57.75361679 58.97899607 -56.52039642 57.94125812 -55.3125 56.875 C-54.36117187 56.04355469 -54.36117187 56.04355469 -53.390625 55.1953125 C-43.88418279 46.4655404 -34.78533541 37.31341481 -27 27 C-26.58911133 26.46020508 -26.17822266 25.92041016 -25.75488281 25.36425781 C-20.43356973 18.32869622 -15.89659128 11.46211742 -12.3515625 3.328125 C-9.36074339 -1.82369057 -5.37019033 -1.36695754 0 0 Z " fill="#000000" transform="translate(282,141)"/>
<path d="M0 0 C1.23492187 -0.01417969 2.46984375 -0.02835938 3.7421875 -0.04296875 C6.91007691 0.17285743 8.56052766 0.39236936 11.125 2.1875 C13.18597652 5.27896478 13.37683194 5.93485193 13.39242554 9.43162537 C13.40095551 10.29662659 13.40948547 11.16162781 13.41827393 12.05284119 C13.41736755 12.99889725 13.41646118 13.94495331 13.41552734 14.91967773 C13.42560318 16.41762375 13.42560318 16.41762375 13.43588257 17.9458313 C13.45491527 21.25430241 13.45878931 24.56257127 13.4609375 27.87109375 C13.4673613 30.16650985 13.47408934 32.46192512 13.48110962 34.75733948 C13.49309527 39.57172546 13.49678907 44.3860396 13.49560547 49.20043945 C13.49540211 55.37575368 13.52271685 61.55060858 13.55714989 67.72581387 C13.57936336 72.46725082 13.58344473 77.20857622 13.58238602 81.95005989 C13.58474987 84.22708788 13.59361723 86.50411859 13.60905075 88.7810955 C13.62859985 91.96303569 13.62291612 95.14397212 13.61083984 98.32592773 C13.62207886 99.26995956 13.63331787 100.21399139 13.64489746 101.18663025 C13.58363422 107.52417648 13.58363422 107.52417648 11.34048462 110.76844788 C7.95085948 112.93955514 4.58106266 112.80652482 0.6875 112.75 C-0.43881836 112.78577148 -0.43881836 112.78577148 -1.58789062 112.82226562 C-2.32072266 112.82033203 -3.05355469 112.81839844 -3.80859375 112.81640625 C-4.46915771 112.81713135 -5.12972168 112.81785645 -5.81030273 112.81860352 C-9.25379716 111.76605142 -10.66309259 110.00518674 -12.875 107.1875 C-13.60908547 103.9354629 -13.54839502 100.75034947 -13.50610352 97.42773438 C-13.51325882 96.44992508 -13.52041412 95.47211578 -13.52778625 94.4646759 C-13.54467825 91.23639028 -13.52526688 88.00949229 -13.50390625 84.78125 C-13.5047349 82.53592819 -13.50719412 80.29060645 -13.51121521 78.04528809 C-13.51407357 73.34104132 -13.49936764 68.63727058 -13.47192383 63.93310547 C-13.43784156 57.90359692 -13.44385922 51.87493961 -13.4625864 45.84539032 C-13.47315571 41.20938017 -13.46421908 36.57356804 -13.44920158 31.93757629 C-13.44401884 29.71442757 -13.44450268 27.49125818 -13.45074654 25.26811218 C-13.4561977 22.16071109 -13.43582565 19.05452794 -13.40844727 15.94726562 C-13.41823608 14.56937614 -13.41823608 14.56937614 -13.42822266 13.16365051 C-13.36550847 8.97688931 -13.2340418 6.76086447 -10.96665955 3.14001465 C-7.35977235 -0.22692912 -4.86162038 0.0252683 0 0 Z " fill="#000000" transform="translate(191.875,193.8125)"/>
</svg>
