<?xml version="1.0" encoding="UTF-8"?>
<svg version="1.1" xmlns="http://www.w3.org/2000/svg" width="512" height="512">
<path d="M0 0 C9.43775825 6.71467747 15.65564435 15.48259529 17.95703125 26.8125 C18.37163283 29.72837925 18.52535125 32.62220261 18.6875 35.5625 C18.96167919 39.40590477 19.19730874 41.11667486 21.1875 44.5 C24.78735507 47.57046462 27.96476387 47.45506551 32.52807617 47.51782227 C34.44972847 47.5477401 34.44972847 47.5477401 36.41020203 47.57826233 C37.80862304 47.5952454 39.20704531 47.61212425 40.60546875 47.62890625 C42.0360829 47.64948166 43.46669105 47.67047829 44.89729309 47.69187927 C48.66030006 47.74703933 52.42336135 47.79647529 56.1864624 47.84472656 C60.70280643 47.90382448 65.21905133 47.97001904 69.73531342 48.03502655 C76.594315 48.13295976 83.45338055 48.22186783 90.3125 48.3125 C90.3125 64.4825 90.3125 80.6525 90.3125 97.3125 C81.3125 95.3125 81.3125 95.3125 78.51953125 94.64453125 C64.29147748 91.557531 49.99979218 94.3724061 37.53125 101.78125 C24.0585525 111.07930884 15.97660109 123.26177696 12.6953125 139.3359375 C9.6911119 162.69512991 17.72310953 186.20209978 31.28515625 205.0546875 C33.23041528 207.5375032 35.24151167 209.93382197 37.3125 212.3125 C37.99957031 213.12074219 38.68664062 213.92898438 39.39453125 214.76171875 C49.21301371 226.03085988 59.93569177 234.80226901 72.30859375 243.07421875 C73.08291748 243.6141748 73.85724121 244.15413086 74.6550293 244.71044922 C77.35430982 246.45123002 77.35430982 246.45123002 80.77661133 247.59033203 C84.69873718 249.25753619 87.95436399 250.6987773 90.3125 254.3125 C92.53533887 262.51332109 91.52424317 271.42433724 91.125 279.8125 C91.05975211 282.18473832 91.00044324 284.55714792 90.94726562 286.9296875 C90.80438399 292.72770801 90.58727288 298.51931179 90.3125 304.3125 C89.53433426 304.32058685 88.75616852 304.32867371 87.954422 304.33700562 C80.61247688 304.41502272 73.27072846 304.50233468 65.92902088 304.60002708 C62.15478487 304.64992269 58.38057593 304.6962531 54.60620117 304.734375 C50.96210907 304.77131322 47.31824724 304.81769591 43.67435265 304.87056351 C42.28577409 304.88906221 40.89714626 304.90418682 39.50849342 304.91584396 C37.56000665 304.93278326 35.6116486 304.9629508 33.66333008 304.99365234 C32.00120232 305.01363785 32.00120232 305.01363785 30.30549622 305.0340271 C26.39368504 305.39798794 23.46818099 306.2469055 20.55859375 308.9296875 C18.79035286 312.31096318 18.65414691 315.6996249 18.375 319.4375 C17.05158762 332.95664446 12.09199007 342.88447181 1.59375 351.70703125 C-8.68958529 358.94410454 -19.44610881 360.17645504 -31.6875 359.3125 C-39.54985534 357.71631417 -45.74320426 354.65207301 -51.6875 349.3125 C-52.30367188 348.78785156 -52.91984375 348.26320313 -53.5546875 347.72265625 C-61.9742225 340.04389579 -65.46113746 329.84790614 -66.125 318.6875 C-66.18494141 317.05941406 -66.18494141 317.05941406 -66.24609375 315.3984375 C-66.74363241 311.92006986 -67.49894768 310.0542029 -69.6875 307.3125 C-73.64899559 305.28206008 -76.98772085 305.06184301 -81.40209961 305.05712891 C-82.05643478 305.05350845 -82.71076996 305.049888 -83.38493347 305.04615784 C-84.79863534 305.03929128 -86.21236357 305.03675324 -87.62608147 305.03810501 C-89.86723984 305.03907435 -92.10792397 305.02608084 -94.34901428 305.00912476 C-100.71823489 304.96297275 -107.08740489 304.9382487 -113.45678711 304.93164062 C-117.35959797 304.92661627 -121.26191075 304.90232341 -125.16455269 304.86631393 C-126.6472124 304.8565403 -128.12994082 304.8541707 -129.61262321 304.85948563 C-131.69012311 304.86658468 -133.76614548 304.84922023 -135.84350586 304.82666016 C-137.02311386 304.82381012 -138.20272186 304.82096008 -139.41807556 304.81802368 C-144.40563222 304.04683962 -147.42332303 301.90512834 -150.5372467 297.98216248 C-151.95550914 294.69046835 -152.07512931 292.18113032 -152.09155273 288.59790039 C-152.10184761 287.61639763 -152.10184761 287.61639763 -152.11235046 286.61506653 C-152.13057428 284.46320578 -152.12678759 282.31207723 -152.12109375 280.16015625 C-152.12565783 278.65709701 -152.13096408 277.15403986 -152.13697815 275.65098572 C-152.14590062 272.50462351 -152.14349629 269.35851523 -152.13354492 266.2121582 C-152.12205825 262.18928248 -152.14226546 258.16728495 -152.17146206 254.14452457 C-152.18984966 251.04144262 -152.18952655 247.9385701 -152.18382454 244.83544731 C-152.18367162 243.35274461 -152.18969132 241.87002744 -152.20211601 240.38737679 C-152.21707339 238.30986322 -152.20631724 236.23395896 -152.18920898 234.15649414 C-152.18904282 232.97688614 -152.18887665 231.79727814 -152.18870544 230.58192444 C-151.45621199 225.80378002 -149.22202455 222.66102157 -145.625 219.5 C-142.20131609 217.40161309 -139.18309556 217.17780569 -135.24267578 217.02270508 C-121.55059161 216.47180153 -109.96819709 213.30843391 -100.3125 202.9375 C-93.04833935 194.19414535 -90.13561582 184.86572189 -90.37890625 173.53125 C-91.33654607 163.54270297 -94.77539184 155.54746671 -101.6875 148.3125 C-102.22246094 147.74917969 -102.75742188 147.18585938 -103.30859375 146.60546875 C-112.18206744 138.20013995 -122.96029125 136.19017212 -134.71679688 135.8828125 C-139.40150859 135.66966922 -142.69223706 134.7652132 -146.6875 132.3125 C-150.90385428 127.64032363 -151.81283517 125.15358874 -151.84863281 118.92260742 C-151.85359772 118.26710403 -151.85856262 117.61160065 -151.86367798 116.93623352 C-151.87830544 114.76346798 -151.88510315 112.59077548 -151.890625 110.41796875 C-151.89637676 108.90822853 -151.90213449 107.39848834 -151.90789795 105.88874817 C-151.91841013 102.72034362 -151.92425111 99.55196446 -151.92773438 96.38354492 C-151.93321421 92.32815917 -151.95723009 88.27311001 -151.98570633 84.2178297 C-152.00435386 81.0976718 -152.00953946 77.97759455 -152.01107025 74.85738564 C-152.01409345 73.36268591 -152.02211078 71.8679875 -152.03525543 70.37334251 C-152.05235798 68.27882889 -152.0504258 66.18513177 -152.04394531 64.09057617 C-152.04759094 62.89969894 -152.05123657 61.70882172 -152.05499268 60.4818573 C-151.48904443 55.60096489 -149.6785631 53.14175869 -145.96142578 50.03149414 C-140.58079428 47.2415598 -134.41745911 47.76228701 -128.50689316 47.79607964 C-126.26980995 47.80879194 -124.03394567 47.79734822 -121.79690552 47.78004456 C-117.85655422 47.753435 -113.91650565 47.74774564 -109.97607422 47.74914551 C-103.66310743 47.75138053 -97.35051376 47.73719651 -91.03769302 47.69355965 C-88.83896319 47.68374672 -86.64082548 47.69242242 -84.44210815 47.70225525 C-83.09014501 47.69610987 -81.73818507 47.68919775 -80.38623047 47.68139648 C-79.21043427 47.68235825 -78.03463806 47.68332001 -76.82321167 47.68431091 C-73.35344327 47.27288987 -71.48265578 46.36853217 -68.6875 44.3125 C-66.41663787 41.11953021 -66.43500956 38.15741546 -66.3125 34.3125 C-65.61837846 23.83008833 -62.74174117 15.16565523 -55.6875 7.3125 C-55.16285156 6.69632813 -54.63820313 6.08015625 -54.09765625 5.4453125 C-40.02230826 -9.98789259 -16.97518571 -10.36410148 0 0 Z " fill="#9ea4aa" transform="translate(151.6875,79.6875)"/>
<path d="M0 0 C1.24900356 1.03910877 2.4788054 2.10176784 3.6875 3.1875 C4.30367187 3.71214844 4.91984375 4.23679687 5.5546875 4.77734375 C13.9742225 12.45610421 17.46113746 22.65209386 18.125 33.8125 C18.16496094 34.89789063 18.20492187 35.98328125 18.24609375 37.1015625 C18.73974158 40.55272875 19.56740295 42.4347544 21.6875 45.1875 C25.15222227 47.48259828 28.18277257 47.43850052 32.27270508 47.44287109 C32.92528793 47.44649155 33.57787079 47.450112 34.25022888 47.45384216 C35.66340045 47.46072015 37.07659849 47.4632446 38.48978615 47.46189499 C40.73113975 47.46092709 42.97201724 47.47390353 45.21330261 47.49087524 C51.58430278 47.53706175 57.95525413 47.56174007 64.32641602 47.56835938 C68.22807811 47.57338975 72.12924343 47.59771717 76.03073692 47.63368607 C77.51257016 47.64344988 78.99447204 47.64583472 80.4763279 47.64051437 C95.19227273 47.59016637 95.19227273 47.59016637 100.6875 52.1875 C103.61911431 56.14879332 104.06916681 59.01798299 104.09155273 63.90209961 C104.09841599 64.55643478 104.10527924 65.21076996 104.11235046 65.88493347 C104.13057428 68.03679422 104.12678759 70.18792277 104.12109375 72.33984375 C104.12565783 73.84290299 104.13096408 75.34596014 104.13697815 76.84901428 C104.14590062 79.99537649 104.14349629 83.14148477 104.13354492 86.2878418 C104.12205825 90.31071752 104.14226546 94.33271505 104.17146206 98.35547543 C104.18984966 101.45855738 104.18952655 104.5614299 104.18382454 107.66455269 C104.18367162 109.14725539 104.18969132 110.62997256 104.20211601 112.11262321 C104.21707339 114.19013678 104.20631724 116.26604104 104.18920898 118.34350586 C104.18904282 119.52311386 104.18887665 120.70272186 104.18870544 121.91807556 C103.45621199 126.69621998 101.22202455 129.83897843 97.625 133 C94.21740597 135.08852537 91.26413225 135.30107361 87.34423828 135.42626953 C73.81635448 135.90253683 62.38414528 139.37267206 52.65234375 149.25390625 C45.25630309 158.0317974 42.05935138 168.7411444 42.90625 180.12890625 C44.32562345 190.81515058 48.63610459 199.90365007 56.6875 207.1875 C66.08934679 214.16765898 75.4044656 216.52675402 86.97900391 216.72192383 C91.5956613 216.86066335 94.75175843 217.77750846 98.6875 220.1875 C102.89514893 224.8500299 103.81287095 227.3439359 103.86450195 233.56152344 C103.87107315 234.21542053 103.87764435 234.86931763 103.88441467 235.54302979 C103.90415331 237.71097934 103.91581281 239.87885953 103.92578125 242.046875 C103.92985678 242.78776619 103.9339323 243.52865738 103.93813133 244.29199982 C103.95899675 248.21517153 103.97329511 252.13830823 103.98266602 256.06152344 C103.99371793 260.10794413 104.02810169 264.15381299 104.06783772 268.20003891 C104.09402619 271.31594848 104.1023599 274.43172718 104.10594749 277.54773712 C104.11080952 279.03883837 104.12241271 280.52993393 104.14098549 282.02092743 C104.16542127 284.11302412 104.16440474 286.20370175 104.1574707 288.29589844 C104.16333694 289.48455505 104.16920319 290.67321167 104.17524719 291.89788818 C103.43243802 296.90776596 101.29117624 299.91372401 97.35716248 303.03845215 C94.06233994 304.45657477 91.55882441 304.56601605 87.97290039 304.57226562 C87.31856522 304.5776384 86.66423004 304.58301117 85.99006653 304.58854675 C84.57638047 304.59829238 83.16263481 304.60127864 81.74891853 304.59819031 C79.50765279 304.59369483 77.26716942 304.60776025 75.02598572 304.62658691 C70.26733638 304.66329508 65.50877005 304.67706542 60.75 304.6875 C55.23663085 304.69959896 49.7236447 304.72122781 44.21044731 304.76750183 C42.00904478 304.78102644 39.80813215 304.77690977 37.60670471 304.77209473 C36.24829494 304.78144026 34.88989051 304.79161032 33.53149414 304.80273438 C31.76208214 304.80581604 31.76208214 304.80581604 29.95692444 304.80895996 C26.27415891 305.2353574 23.85522411 306.29258927 20.6875 308.1875 C18.35132411 311.3204064 18.43437746 314.36242267 18.3125 318.1875 C17.61837846 328.66991167 14.74174117 337.33434477 7.6875 345.1875 C7.16285156 345.80367188 6.63820313 346.41984375 6.09765625 347.0546875 C-0.63136288 354.43285906 -9.99329353 358.66146876 -19.92578125 359.48828125 C-33.77188336 359.5321443 -44.65542025 356.53791704 -55.0625 347 C-63.17483439 338.31232275 -66.0255036 328.47313932 -66.6875 316.9375 C-66.96310785 313.14184797 -67.21148185 311.36515261 -69.125 308 C-72.91652358 304.85845189 -76.65110862 305.05056858 -81.45800781 304.98217773 C-82.69899231 304.96223251 -83.93997681 304.94228729 -85.21856689 304.92173767 C-86.567585 304.90475607 -87.91660441 304.88787717 -89.265625 304.87109375 C-90.64996951 304.85051124 -92.03430792 304.82951443 -93.41864014 304.80812073 C-97.055044 304.75303393 -100.69150333 304.70356586 -104.32800293 304.65527344 C-108.04163525 304.60496036 -111.75518744 304.54932558 -115.46875 304.49414062 C-122.74993206 304.38672296 -130.03118094 304.28524192 -137.3125 304.1875 C-137.79776704 297.28939918 -138.12822267 290.3957234 -138.35620117 283.484375 C-138.45126377 281.13960521 -138.5805905 278.79594798 -138.74584961 276.45507812 C-140.04862164 257.51446676 -140.04862164 257.51446676 -135.48901367 251.97024536 C-130.9749936 248.16708741 -125.96216484 245.64004286 -120.58978271 243.26565552 C-95.33754334 231.31024874 -73.27863137 203.78335934 -63.34375 178.140625 C-57.17362613 160.47163391 -56.56763498 140.45250136 -64.3125 123.1875 C-71.13944446 110.00387565 -81.39526693 100.63353632 -95.5625 95.8125 C-108.07330888 92.39238538 -118.86711872 93.04110824 -131.3125 96.1875 C-134.2825 96.6825 -134.2825 96.6825 -137.3125 97.1875 C-137.3125 81.0175 -137.3125 64.8475 -137.3125 48.1875 C-132.82269531 48.15011719 -128.33289063 48.11273438 -123.70703125 48.07421875 C-120.12174863 48.0360989 -116.53652684 47.99502618 -112.95130157 47.9519577 C-109.16962206 47.90733847 -105.38805229 47.86789481 -101.60620117 47.84106445 C-97.96202822 47.81500982 -94.31826905 47.77459291 -90.67435265 47.72431374 C-89.28578536 47.70765947 -87.89714652 47.6961362 -86.50849342 47.68988609 C-84.5599898 47.68023028 -82.61161758 47.65045739 -80.66333008 47.61987305 C-79.00120232 47.60321846 -79.00120232 47.60321846 -77.30549622 47.58622742 C-73.91015307 47.13389928 -72.04586386 46.22454578 -69.3125 44.1875 C-66.87063903 40.52470854 -66.79940896 37.37926739 -66.4375 33.125 C-65.04085915 19.59326037 -60.1130433 9.63322101 -49.59375 0.79296875 C-35.17306831 -9.35583292 -14.58691842 -10.42321948 0 0 Z " fill="#9ea4aa" transform="translate(408.3125,79.8125)"/>
<path d="M0 0 C3.66890416 3.23587899 5.99253196 6.78574979 8.0625 11.1875 C9.77270982 14.81905665 11.47360811 16.90095721 15 19 C19.85330694 20.47709342 23.31972267 19.87211093 28 18 C31.45787642 15.2830971 33.3403521 12.47101601 35.3125 8.625 C38.8540315 2.02587298 43.64161456 -2.46699588 50.75 -5 C58.63517922 -6.92291947 66.16092399 -6.37534498 73.375 -2.5625 C79.39784436 1.43333233 82.74525338 7.23576014 85 14 C86.3413988 33.23949142 82.22478098 49.15447317 69.35546875 64.16015625 C66.65798737 67.19470378 63.83778408 70.09669709 61 73 C60.28199219 73.77988281 59.56398438 74.55976563 58.82421875 75.36328125 C50.16467645 84.5446792 39.53694549 91.59851107 28.875 98.25 C28.25995605 98.64509766 27.64491211 99.04019531 27.01123047 99.44726562 C24.46875387 100.98271658 22.54150855 101.99742139 19.5390625 102.01171875 C15.93067314 100.57391438 12.76457564 98.6550459 9.5 96.5625 C8.79875 96.11801514 8.0975 95.67353027 7.375 95.21557617 C-15.60370151 80.42980164 -36.31566652 61.46667656 -42.8659668 33.93652344 C-45.42548154 22.04624569 -44.46370908 12.95813474 -37.875 2.6875 C-26.7630148 -7.69979051 -12.47707577 -8.35402824 0 0 Z " fill="#1f2124" transform="translate(236,207)"/>
</svg>
