<?xml version="1.0" encoding="UTF-8"?>
<svg version="1.1" xmlns="http://www.w3.org/2000/svg" width="512" height="512">
<path d="M0 0 C1.2401033 -0.00335861 2.4802066 -0.00671722 3.75788879 -0.01017761 C7.14036317 -0.01801906 10.52277613 -0.0213534 13.90525532 -0.0219934 C16.02472759 -0.02270716 18.14419355 -0.02484764 20.26366425 -0.02749062 C27.67561752 -0.0367263 35.08755288 -0.04082781 42.49951172 -0.04003906 C49.37953965 -0.03943903 56.25948898 -0.04998076 63.13949704 -0.06578273 C69.07016147 -0.07891281 75.00080039 -0.08422066 80.93147922 -0.08358365 C84.46298668 -0.08333023 87.99442423 -0.08609434 91.52591705 -0.0967617 C95.47173555 -0.10835652 99.41744856 -0.10366257 103.36328125 -0.09765625 C104.51381485 -0.10327576 105.66434845 -0.10889526 106.8497467 -0.11468506 C124.62033102 -0.04632372 138.74296077 4.03615554 151.78417969 16.36010742 C163.5923747 28.50286796 166.74273364 42.32845968 166.73095703 58.69873047 C166.73695083 60.05811427 166.74375832 61.4174947 166.75131226 62.77687073 C166.76889596 66.45072484 166.77366448 70.12448562 166.77494383 73.79837775 C166.77637068 76.10011548 166.78065041 78.40182988 166.78593826 80.70356178 C166.80441551 88.75209672 166.81261205 96.80056565 166.81103516 104.84912109 C166.80983539 112.32111204 166.83091117 119.79281337 166.86252248 127.26473111 C166.88878296 133.70412179 166.89939833 140.14341847 166.89812434 146.5828622 C166.89761743 150.4179672 166.90314836 154.25281474 166.92448044 158.08786583 C166.94402785 161.70040673 166.94387659 165.31244896 166.92944717 168.92500877 C166.92640184 170.86072622 166.94292055 172.79644461 166.96032715 174.73208618 C166.84880825 190.47546252 161.38475175 203.54452929 150.69824219 215.04370117 C141.62342871 223.49049988 129.21047014 229.23973177 116.73194885 229.29243469 C115.56725571 229.29959 114.40256256 229.3067453 113.20257568 229.31411743 C111.92827698 229.31680634 110.65397827 229.31949524 109.34106445 229.32226562 C107.98227262 229.32853401 106.62348249 229.33518115 105.26469421 229.34217834 C100.80375352 229.36318873 96.34281263 229.37358267 91.88183594 229.38354492 C90.34177063 229.38759458 88.8017055 229.39171156 87.26164055 229.395895 C80.01985713 229.41494553 72.77808386 229.42917294 65.53628021 229.43750697 C57.20218533 229.44725824 48.86835754 229.47352279 40.53435665 229.51400787 C34.07807311 229.54428414 27.62186559 229.55898697 21.1655125 229.56228799 C17.31691716 229.56462674 13.46860716 229.57343137 9.62008858 229.59874916 C5.99120765 229.62223539 2.36279569 229.62618199 -1.26614189 229.61598778 C-3.21145558 229.61526563 -5.15674656 229.63421461 -7.10195923 229.65405273 C-22.87020107 229.56204836 -35.76220012 224.32594938 -47.20019531 213.59838867 C-59.97397928 200.31703713 -62.88078354 185.00473816 -62.81835938 167.13745117 C-62.82186401 165.88554993 -62.82536865 164.63364868 -62.82897949 163.34381104 C-62.83622308 159.94291891 -62.8345966 156.54227336 -62.82822132 153.14139557 C-62.82311465 149.56178994 -62.82786562 145.98219398 -62.83099365 142.40258789 C-62.83461981 136.39426815 -62.82986981 130.38599777 -62.8203125 124.37768555 C-62.80943055 117.45723705 -62.81295709 110.53690645 -62.82396531 103.6164608 C-62.83307684 97.64667956 -62.83430466 91.67693356 -62.82908797 85.7071476 C-62.82598943 82.15392757 -62.8255001 78.60076274 -62.83216095 75.04754639 C-62.83907596 71.08267731 -62.82945882 67.11793753 -62.81835938 63.15307617 C-62.82240784 61.99430969 -62.8264563 60.83554321 -62.83062744 59.6416626 C-62.74513645 43.07198227 -58.65687368 28.8000833 -47.55957031 16.14526367 C-41.34368619 10.09458577 -34.60131781 6.2803982 -26.55957031 3.14526367 C-25.50769531 2.73276367 -24.45582031 2.32026367 -23.37207031 1.89526367 C-15.68548767 -0.1544917 -7.89705924 -0.00308885 0 0 Z " fill="#9ea4aa" transform="translate(74.5595703125,11.854736328125)"/>
<path d="M0 0 C1.86344055 -0.00525696 1.86344055 -0.00525696 3.76452637 -0.01062012 C7.13436955 -0.01785531 10.50396334 -0.01624299 13.87379193 -0.00986195 C17.4226952 -0.00474953 20.97158881 -0.0095077 24.52049255 -0.01263428 C30.47575767 -0.01625833 36.43097294 -0.01151556 42.38623047 -0.00195312 C49.24478412 0.00893343 56.10321885 0.00539809 62.96176964 -0.00560594 C68.88061614 -0.01471755 74.79942709 -0.01594539 80.71827835 -0.0107286 C84.24018451 -0.00763074 87.762035 -0.00713887 91.28393745 -0.01380157 C95.21277522 -0.02071695 99.14148252 -0.01109929 103.0703125 0 C104.2181572 -0.00404846 105.36600189 -0.00809692 106.54862976 -0.01226807 C123.26679979 0.07477416 137.21434885 4.19954393 149.59545898 15.69628906 C150.77108398 16.96472656 150.77108398 16.96472656 151.97045898 18.25878906 C152.69362305 18.99162109 152.69362305 18.99162109 153.43139648 19.73925781 C164.66020992 31.73755846 166.11659909 47.2556152 166.1315918 62.87841797 C166.1365567 64.12506226 166.14152161 65.37170654 166.14663696 66.65612793 C166.15868841 70.05732784 166.16618884 73.45846674 166.17064762 76.85968065 C166.17359303 78.99189924 166.17770053 81.12411264 166.18215179 83.25632858 C166.19580467 89.94868333 166.20548168 96.64102599 166.20935369 103.33339369 C166.21382688 111.01933985 166.23134963 118.7051075 166.26035428 126.39099944 C166.28207959 132.35821276 166.29206374 138.32537626 166.2933948 144.29262865 C166.29443526 147.84436271 166.30017857 151.3959285 166.31821442 154.94762039 C166.33799345 158.91940113 166.33336323 162.89096453 166.3269043 166.86279297 C166.33611908 168.01548676 166.34533386 169.16818054 166.35482788 170.35580444 C166.26983123 187.16731273 162.04245662 201.79316652 150.25170898 214.07519531 C137.8629676 225.93359674 124.20350111 229.56139245 107.41699219 229.54931641 C106.05760838 229.55531021 104.69822796 229.5621177 103.33885193 229.56967163 C99.66499782 229.58725533 95.99123703 229.59202385 92.3173449 229.5933032 C90.01560718 229.59473005 87.71389278 229.59900978 85.41216087 229.60429764 C77.36362593 229.62277488 69.31515701 229.63097142 61.26660156 229.62939453 C53.79461062 229.62819476 46.32290928 229.64927055 38.85099155 229.68088186 C32.41160087 229.70714234 25.97230419 229.71775771 19.53286046 229.71648371 C15.69775545 229.71597681 11.86290792 229.72150774 8.02785683 229.74283981 C4.41531593 229.76238723 0.80327369 229.76223597 -2.80928612 229.74780655 C-4.74500356 229.74476121 -6.68072195 229.76127993 -8.61636353 229.77868652 C-24.35973986 229.66716762 -37.42880663 224.20311112 -48.92797852 213.51660156 C-57.37477722 204.44178808 -63.12400912 192.02882952 -63.17671204 179.55030823 C-63.18386734 178.38561508 -63.19102264 177.22092194 -63.19839478 176.02093506 C-63.20108368 174.74663635 -63.20377258 173.47233765 -63.20654297 172.15942383 C-63.21281136 170.800632 -63.21945849 169.44184186 -63.22645569 168.08305359 C-63.24746607 163.62211289 -63.25786002 159.161172 -63.26782227 154.70019531 C-63.27187192 153.16013001 -63.27598891 151.62006487 -63.28017235 150.07999992 C-63.29922287 142.83821651 -63.31345028 135.59644324 -63.32178432 128.35463959 C-63.33153558 120.02054471 -63.35780013 111.68671691 -63.39828521 103.35271603 C-63.42856149 96.89643249 -63.44326432 90.44022496 -63.44656533 83.98387188 C-63.44890408 80.13527654 -63.45770872 76.28696653 -63.4830265 72.43844795 C-63.50651273 68.80956702 -63.51045933 65.18115507 -63.50026512 61.55221748 C-63.49954298 59.60690379 -63.51849195 57.66161282 -63.53833008 55.71640015 C-63.44632571 39.94815831 -58.21022673 27.05615926 -47.48266602 15.61816406 C-33.92822992 2.58173189 -18.21643012 -0.06436307 0 0 Z " fill="#9ea4aa" transform="translate(334.029541015625,11.7412109375)"/>
<path d="M0 0 C1.16469315 -0.0071553 2.32938629 -0.01431061 3.52937317 -0.02168274 C4.80367188 -0.02437164 6.07797058 -0.02706055 7.3908844 -0.02983093 C8.74967623 -0.03609932 10.10846636 -0.04274645 11.46725464 -0.04974365 C15.92819533 -0.07075404 20.38913622 -0.08114798 24.85011292 -0.09111023 C26.39017822 -0.09515989 27.93024335 -0.09927687 29.4703083 -0.10346031 C36.71209172 -0.12251083 43.95386499 -0.13673824 51.19566864 -0.14507228 C59.52976352 -0.15482355 67.86359131 -0.1810881 76.1975922 -0.22157317 C82.65387574 -0.25184945 89.11008326 -0.26655228 95.56643635 -0.26985329 C99.41503169 -0.27219205 103.2633417 -0.28099668 107.11186028 -0.30631447 C110.74074121 -0.32980069 114.36915316 -0.3337473 117.99809074 -0.32355309 C119.94340444 -0.32283094 121.88869541 -0.34177991 123.83390808 -0.36161804 C139.60214992 -0.26961367 152.49414897 4.96648531 163.93214417 15.69404602 C176.70592813 28.97539756 179.61273239 44.28769653 179.55030823 62.15498352 C179.55556519 64.03283539 179.55556519 64.03283539 179.56092834 65.94862366 C179.56817194 69.34951579 179.56654545 72.75016134 179.56017017 76.15103912 C179.55506351 79.73064475 179.55981447 83.31024071 179.5629425 86.8898468 C179.56656867 92.89816654 179.56181866 98.90643692 179.55226135 104.91474915 C179.5413794 111.83519765 179.54490594 118.75552825 179.55591416 125.67597389 C179.56502569 131.64575513 179.56625351 137.61550114 179.56103683 143.58528709 C179.55793828 147.13850712 179.55744895 150.69167195 179.5641098 154.24488831 C179.57102481 158.20975738 179.56140767 162.17449716 179.55030823 166.13935852 C179.55435669 167.298125 179.55840515 168.45689148 179.56257629 169.65077209 C179.47615767 186.40024443 175.37553598 200.36438368 163.85401917 212.77217102 C163.00839417 213.55592102 162.16276917 214.33967102 161.29151917 215.14717102 C160.55868713 215.87033508 160.55868713 215.87033508 159.81105042 216.60810852 C148.04677153 227.61790871 131.52382838 229.62350102 116.05079651 229.51948547 C114.18932732 229.52496147 114.18932732 229.52496147 112.29025269 229.5305481 C108.93273659 229.53719687 105.57578904 229.53064229 102.21832991 229.51721597 C98.67791766 229.5057632 95.13751717 229.51001938 91.59709167 229.51196289 C85.65794602 229.51284132 79.71891549 229.50185867 73.77980042 229.48335266 C66.9439397 229.46217245 60.10824711 229.45868207 53.27236021 229.46491462 C46.65367978 229.47063677 40.03505767 229.46493046 33.41638565 229.45374107 C30.61845937 229.44913465 27.82056923 229.44820383 25.02264023 229.45032692 C21.10618226 229.45258474 17.1898798 229.43800457 13.27345276 229.42182922 C12.13234543 229.42430664 10.9912381 229.42678406 9.81555176 229.42933655 C-7.92846821 229.31311746 -22.02814662 225.24008685 -35.05223083 212.93232727 C-46.86042584 200.78956674 -50.01078479 186.96397501 -49.99900818 170.59370422 C-50.00500198 169.23432042 -50.01180947 167.87494 -50.0193634 166.51556396 C-50.03694711 162.84170986 -50.04171563 159.16794907 -50.04299498 155.49405694 C-50.04442183 153.19231922 -50.04870156 150.89060481 -50.05398941 148.58887291 C-50.07246665 140.54033797 -50.08066319 132.49186904 -50.0790863 124.4433136 C-50.07788653 116.97132266 -50.09896232 109.49962132 -50.13057363 102.02770358 C-50.15683411 95.58831291 -50.16744948 89.14901623 -50.16617548 82.70957249 C-50.16566858 78.87446749 -50.17119951 75.03961996 -50.19253159 71.20456886 C-50.212079 67.59202797 -50.21192774 63.97998573 -50.19749832 60.36742592 C-50.19445298 58.43170848 -50.2109717 56.49599008 -50.2283783 54.56034851 C-50.11685939 38.81697218 -44.65280289 25.7479054 -33.96629333 14.24873352 C-24.89147985 5.80193481 -12.47852129 0.05270292 0 0 Z " fill="#9ea4aa" transform="translate(320.70848083496094,270.8528289794922)"/>
<path d="M0 0 C1.35938381 -0.0059938 2.71876423 -0.01280129 4.07814026 -0.02035522 C7.75199437 -0.03793893 11.42575516 -0.04270745 15.09964728 -0.0439868 C17.40138501 -0.04541365 19.70309941 -0.04969338 22.00483131 -0.05498123 C30.05336625 -0.07345848 38.10183518 -0.08165501 46.15039062 -0.08007812 C53.62238157 -0.07887836 61.09408291 -0.09995414 68.56600064 -0.13156545 C75.00539132 -0.15782593 81.444688 -0.1684413 87.88413173 -0.16716731 C91.71923673 -0.1666604 95.55408427 -0.17219133 99.38913536 -0.19352341 C103.00167626 -0.21307082 106.61371849 -0.21291956 110.22627831 -0.19849014 C112.16199575 -0.19544481 114.09771414 -0.21196352 116.03335571 -0.22937012 C131.77673205 -0.11785122 144.84579882 5.34620529 156.3449707 16.03271484 C164.79176941 25.10752833 170.5410013 37.52048689 170.59370422 49.99900818 C170.60443718 51.7460479 170.60443718 51.7460479 170.61538696 53.52838135 C170.61807587 54.80268005 170.62076477 56.07697876 170.62353516 57.38989258 C170.62980354 58.74868441 170.63645068 60.10747454 170.64344788 61.46626282 C170.66445826 65.92720351 170.6748522 70.3881444 170.68481445 74.84912109 C170.68886411 76.3891864 170.69298109 77.92925153 170.69716454 79.46931648 C170.71621506 86.7110999 170.73044247 93.95287317 170.7387765 101.19467682 C170.74852777 109.5287717 170.77479232 117.86259949 170.8152774 126.19660038 C170.84555367 132.65288392 170.8602565 139.10909144 170.86355752 145.56544453 C170.86589627 149.41403987 170.8747009 153.26234987 170.90001869 157.11086845 C170.92350492 160.73974939 170.92745152 164.36816134 170.91725731 167.99709892 C170.91653516 169.94241261 170.93548414 171.88770359 170.95532227 173.83291626 C170.86331789 189.6011581 165.62721891 202.49315715 154.8996582 213.93115234 C141.35996744 226.95340269 125.6616619 229.60469253 107.46459961 229.56518555 C106.22712479 229.57029648 104.98964996 229.57540741 103.7146759 229.58067322 C100.35703321 229.59209984 96.99963935 229.59465772 93.64199495 229.59210992 C90.82185592 229.59103067 88.00173898 229.59594768 85.18160474 229.60071534 C78.51957147 229.61176221 71.85759461 229.61227521 65.19555664 229.60620117 C58.36088045 229.60016483 51.52641031 229.61247481 44.69176924 229.63377124 C38.78815943 229.65147888 32.88461466 229.65737428 26.98097932 229.6541335 C23.47067735 229.65233507 19.96052241 229.6548106 16.4502449 229.66884804 C12.52916867 229.68394546 8.608348 229.67437671 4.68725586 229.6628418 C3.55019699 229.67048553 2.41313812 229.67812927 1.24162292 229.68600464 C-14.04139965 229.58741454 -30.54962319 225.97033261 -41.9753418 215.06396484 C-54.92059229 200.51657938 -58.86911389 185.4241462 -58.828125 166.33032227 C-58.83323593 165.0832399 -58.83834686 163.83615753 -58.84361267 162.55128479 C-58.85505259 159.16259301 -58.85759487 155.77414752 -58.85504937 152.38545394 C-58.85397121 149.54051186 -58.85888452 146.69559174 -58.86365479 143.85065442 C-58.87470877 137.12966725 -58.87521094 130.40873598 -58.86914062 123.68774414 C-58.86310677 116.79117343 -58.8754063 109.89480704 -58.89671069 102.99827117 C-58.91441788 97.04372663 -58.92031371 91.0892466 -58.91707295 85.13467675 C-58.91527409 81.59306126 -58.91775434 78.05159148 -58.93178749 74.51000023 C-58.94688352 70.55289298 -58.93731657 66.59603902 -58.92578125 62.63891602 C-58.93342499 61.49093536 -58.94106873 60.34295471 -58.94894409 59.16018677 C-58.84155338 42.36198155 -54.61674099 27.74706296 -42.8347168 15.47412109 C-30.44597542 3.61571967 -16.78650892 -0.01207605 0 0 Z " fill="#9ea4aa" transform="translate(70.553466796875,270.70947265625)"/>
</svg>
