<?xml version="1.0" encoding="UTF-8"?>
<svg version="1.1" xmlns="http://www.w3.org/2000/svg" width="512" height="512">
<path d="M0 0 C3.83113996 3.13823672 3.83113996 3.13823672 8.46411133 4.23754883 C10.65326403 2.95949776 10.65326403 2.95949776 12.90161133 0.98754883 C26.08962876 -9.03111862 41.28661654 -16.25149452 57.46411133 -19.76245117 C58.18131348 -19.92181152 58.89851562 -20.08117187 59.63745117 -20.24536133 C92.18721169 -27.2177455 126.70225505 -20.78886506 154.77661133 -2.94995117 C160.60581579 1.13208029 165.80720931 5.79044774 170.90356445 10.73266602 C172.51583891 12.2874313 174.15284343 13.81300981 175.79223633 15.33911133 C198.49940734 36.82100418 210.11432738 67.56348394 211.3894043 98.47167969 C211.99043119 121.32106406 204.56796717 143.52791102 193.11645508 163.12426758 C192.17947473 166.15963505 193.01275897 167.45195612 194.46411133 170.23754883 C195.68419422 172.23529717 196.9374163 174.2129962 198.21411133 176.17504883 C212.56196188 198.97625082 217.27557266 227.1499086 212.21411133 253.61254883 C211.67133027 255.83119765 211.09123734 258.04125038 210.46411133 260.23754883 C210.19727539 261.22883789 209.93043945 262.22012695 209.65551758 263.24145508 C201.32389145 291.05057162 182.04764052 313.82153047 156.64575195 327.52319336 C147.93943588 332.00639187 138.96301756 334.93902985 129.46411133 337.23754883 C127.97911133 337.60686523 127.97911133 337.60686523 126.46411133 337.98364258 C100.03205041 343.42774603 72.24200029 336.9952867 49.46411133 323.23754883 C47.27951618 321.62007592 45.19082987 319.99291652 43.17504883 318.17114258 C41.45092906 317.04383246 41.45092906 317.04383246 39.15551758 317.30395508 C35.64568612 318.52144378 32.95449921 320.51777437 30.02661133 322.73754883 C28.79130667 323.64218362 27.55427528 324.54446445 26.31567383 325.44458008 C25.68306641 325.90558105 25.05045898 326.36658203 24.39868164 326.84155273 C21.27260311 329.09734741 18.10785779 331.28497899 14.90161133 333.42504883 C14.33063721 333.82336914 13.75966309 334.22168945 13.17138672 334.63208008 C10.63257508 336.3043197 8.93862781 337.24681116 5.86254883 337.18676758 C3.064211 336.07928208 1.03652954 334.70287942 -1.34838867 332.86254883 C-5.83475299 329.48429853 -10.38718853 326.26307338 -15.03588867 323.11254883 C-46.34436434 301.73362208 -75.95358399 277.72217136 -103.71801758 251.92602539 C-104.95899505 250.77337965 -106.20089819 249.62172993 -107.44360352 248.47094727 C-126.77518309 230.56900319 -126.77518309 230.56900319 -134.80541992 221.17895508 C-136.55135817 219.22019366 -138.38908983 217.4247035 -140.28588867 215.61254883 C-145.97163856 209.98126015 -150.7160317 203.60322842 -155.53588867 197.23754883 C-156.10178711 196.49472656 -156.66768555 195.7519043 -157.25073242 194.98657227 C-165.02176574 184.75414491 -172.2509317 174.44658277 -178.53588867 163.23754883 C-178.88345215 162.63523437 -179.23101562 162.03291992 -179.58911133 161.41235352 C-185.16306207 151.74330769 -189.33495944 141.93057783 -192.53588867 131.23754883 C-192.74761719 130.5435498 -192.9593457 129.84955078 -193.17749023 129.13452148 C-201.85920391 99.60156047 -195.87703838 68.24594847 -181.63012695 41.53027344 C-164.85421085 11.58293908 -136.9374677 -9.57834588 -104.16088867 -19.01245117 C-69.01202753 -27.78139782 -29.14508897 -22.40691286 0 0 Z " fill="#9EA4AA" transform="translate(247.535888671875,97.762451171875)"/>
<path d="M0 0 C1.13695312 -0.00773438 2.27390625 -0.01546875 3.4453125 -0.0234375 C27.77177902 0.03235715 52.56483311 9.60244123 70.375 26.25 C71.25285156 27.05848389 71.25285156 27.05848389 72.1484375 27.88330078 C91.28695239 45.64989662 105.28664442 69.24429031 106.49951172 95.99633789 C106.83052711 109.03855001 106.98137094 121.61989571 103.375 134.25 C103.10816406 135.24128906 102.84132813 136.23257813 102.56640625 137.25390625 C94.23478012 165.06302279 74.95852919 187.83398165 49.55664062 201.53564453 C40.85032455 206.01884304 31.87390623 208.95148102 22.375 211.25 C21.385 211.49621094 20.395 211.74242187 19.375 211.99609375 C-8.41633676 217.72016169 -37.05828274 210.2890299 -60.61328125 195.35546875 C-65.06078364 192.33116712 -68.95853348 189.2059244 -72.625 185.25 C-73.49511719 184.42628906 -73.49511719 184.42628906 -74.3828125 183.5859375 C-94.51975967 164.39661138 -105.8806234 138.68510547 -106.90234375 111.0859375 C-107.60643577 79.3707689 -97.18713883 52.62914032 -75.375 29.5625 C-54.56773512 9.63133048 -28.64413634 -0.19619271 0 0 Z " fill="#E4E4E4" transform="translate(354.625,223.75)"/>
<path d="M0 0 C1.13695312 -0.00773438 2.27390625 -0.01546875 3.4453125 -0.0234375 C27.77177902 0.03235715 52.56483311 9.60244123 70.375 26.25 C71.25285156 27.05848389 71.25285156 27.05848389 72.1484375 27.88330078 C91.28695239 45.64989662 105.28664442 69.24429031 106.49951172 95.99633789 C106.83052711 109.03855001 106.98137094 121.61989571 103.375 134.25 C103.10816406 135.24128906 102.84132813 136.23257813 102.56640625 137.25390625 C94.23478012 165.06302279 74.95852919 187.83398165 49.55664062 201.53564453 C40.85032455 206.01884304 31.87390623 208.95148102 22.375 211.25 C21.385 211.49621094 20.395 211.74242187 19.375 211.99609375 C-8.41633676 217.72016169 -37.05828274 210.2890299 -60.61328125 195.35546875 C-65.06078364 192.33116712 -68.95853348 189.2059244 -72.625 185.25 C-73.49511719 184.42628906 -73.49511719 184.42628906 -74.3828125 183.5859375 C-94.51975967 164.39661138 -105.8806234 138.68510547 -106.90234375 111.0859375 C-107.60643577 79.3707689 -97.18713883 52.62914032 -75.375 29.5625 C-54.56773512 9.63133048 -28.64413634 -0.19619271 0 0 Z M-69.30664062 48.69775391 C-84.74682743 66.87714422 -91.07092077 90.72433354 -89.625 114.25 C-87.52117113 135.47631206 -78.44116753 153.97252322 -63.625 169.25 C-63.08617187 169.86230469 -62.54734375 170.47460938 -61.9921875 171.10546875 C-49.08374827 185.27880529 -27.26689207 194.3051988 -8.44042969 195.37402344 C19.06254212 196.3010899 41.80318668 188.80436952 62.375 170.25 C79.07782682 154.03445175 88.15216783 132.32694257 88.77783203 109.21801758 C89.05562261 82.93159541 80.71747289 61.99231086 62.7421875 42.625 C47.14225139 26.97357895 25.65169324 17.15762373 3.43530273 16.9206543 C2.52852783 16.92621338 1.62175293 16.93177246 0.6875 16.9375 C-0.27148193 16.94241455 -1.23046387 16.9473291 -2.21850586 16.95239258 C-28.69570774 17.38491787 -51.64374637 29.24435702 -69.30664062 48.69775391 Z " fill="#F6F6F6" transform="translate(354.625,223.75)"/>
<path d="M0 0 C1.08839774 0.88967344 2.17044608 1.78711574 3.25 2.6875 C3.85328125 3.18636719 4.4565625 3.68523437 5.078125 4.19921875 C7 6 7 6 11 11 C-16.06 38.06 -43.12 65.12 -71 93 C-75.49743967 89.14505171 -79.78742339 85.35400893 -83.93359375 81.1640625 C-84.4563942 80.63984711 -84.97919464 80.11563171 -85.51783752 79.57553101 C-87.16012345 77.9277213 -88.7988665 76.27644099 -90.4375 74.625 C-91.56161467 73.49586045 -92.68596174 72.36695222 -93.81054688 71.23828125 C-96.54305235 68.49484812 -99.27239009 65.74830015 -102 63 C-100.49053489 59.81913482 -98.92058175 57.70130094 -96.375 55.25 C-95.42753906 54.32960938 -95.42753906 54.32960938 -94.4609375 53.390625 C-93.73777344 52.70226562 -93.73777344 52.70226562 -93 52 C-89.63664406 53.45745424 -87.45465995 55.31117854 -84.890625 57.9140625 C-84.13652344 58.67460937 -83.38242187 59.43515625 -82.60546875 60.21875 C-81.82816406 61.0128125 -81.05085938 61.806875 -80.25 62.625 C-79.06083984 63.82769531 -79.06083984 63.82769531 -77.84765625 65.0546875 C-75.89385507 67.03202846 -73.94487897 69.01388909 -72 71 C-67.18916998 66.98788275 -62.65327503 62.79404277 -58.23852539 58.35205078 C-57.60352112 57.71719254 -56.96851685 57.08233429 -56.31427002 56.42823792 C-54.23968296 54.35296051 -52.16864927 52.27417599 -50.09765625 50.1953125 C-48.65056401 48.74635295 -47.20324916 47.29761568 -45.75572205 45.84909058 C-41.96419893 42.0537669 -38.17568979 38.25544869 -34.38781738 34.45648193 C-30.5149311 30.57332841 -26.63917848 26.69303805 -22.76367188 22.8125 C-15.17298592 15.21112017 -7.58548351 7.60657116 0 0 Z " fill="#626C78" transform="translate(400,286)"/>
</svg>
