<?xml version="1.0" encoding="UTF-8"?>
<svg version="1.1" xmlns="http://www.w3.org/2000/svg" width="512" height="512">
<path d="M0 0 C1.0544355 -0.0098568 1.0544355 -0.0098568 2.13017273 -0.01991272 C4.44957599 -0.03957578 6.76891478 -0.0512912 9.08837891 -0.0612793 C9.88259876 -0.06535482 10.67681862 -0.06943035 11.49510574 -0.07362938 C15.69709256 -0.09445799 19.89904701 -0.10877484 24.10107422 -0.11816406 C28.43439655 -0.12923582 32.76720644 -0.16365331 37.10034752 -0.20333576 C40.43928975 -0.22950719 43.77810976 -0.23785622 47.11714554 -0.24144554 C48.71430557 -0.24630834 50.31146026 -0.25791367 51.90851974 -0.27648354 C54.14645616 -0.30089281 56.38306433 -0.29990781 58.62109375 -0.29296875 C59.89254242 -0.29883499 61.16399109 -0.30470123 62.47396851 -0.31074524 C67.38995509 0.38105436 70.50570048 2.54493469 73.75244141 6.23950195 C76.26675544 10.3418038 76.43119834 14.49666319 75.93994141 19.17700195 C74.31007113 23.38035163 71.88980128 26.75475016 69.12353516 30.27075195 C64.96504066 36.96826124 65.24910577 44.57781 65.93994141 52.17700195 C67.70690909 58.77686505 71.35280133 64.84251397 77.15478516 68.6184082 C85.53574136 73.38618069 94.09020243 74.99307108 103.65087891 72.45825195 C112.18267599 68.84752554 117.0522128 63.44810583 120.93994141 55.17700195 C123.20098452 48.39387262 123.07895485 39.83849908 120.25244141 33.23950195 C118.1877931 29.27980146 115.59194815 25.76079485 112.93994141 22.17700195 C111.26374741 17.14841996 111.33351406 12.83669785 113.12744141 7.92700195 C115.4789335 4.35922085 118.12436298 2.08479117 121.93994141 0.17700195 C124.38135701 0.08420277 126.793942 0.05116267 129.23535156 0.06347656 C130.36232704 0.06325752 130.36232704 0.06325752 131.5120697 0.06303406 C134.00107691 0.06373199 136.49000973 0.07151882 138.97900391 0.0793457 C140.70250406 0.08121031 142.42600474 0.08263401 144.14950562 0.08363342 C148.69020038 0.08745527 153.23086326 0.09728273 157.77154541 0.1083374 C162.40319385 0.11855866 167.03484744 0.12313258 171.66650391 0.12817383 C180.75766376 0.13890528 189.84879994 0.15597773 198.93994141 0.17700195 C198.94802826 1.31182007 198.95611511 2.44663818 198.96444702 3.61584473 C199.04203705 14.3268047 199.12980869 25.03763965 199.22746849 35.74843597 C199.27734751 41.25454707 199.32367827 46.76063977 199.36181641 52.2668457 C199.39877524 57.58374098 199.44516389 62.90047906 199.49800491 68.21723938 C199.5164926 70.24251031 199.53162117 72.26781487 199.54328537 74.2931366 C199.56024428 77.13674916 199.58930228 79.98000611 199.62109375 82.82348633 C199.62325394 83.65499207 199.62541412 84.4864978 199.62763977 85.34320068 C199.70711467 90.93246912 199.81105908 97.45226398 203.37744141 102.0168457 C208.51910546 105.6288647 211.64321244 106.60094014 217.93994141 106.17700195 C219.42494141 105.68200195 219.42494141 105.68200195 220.93994141 105.17700195 C231.2937727 104.16342987 239.24223097 104.95342029 247.93994141 111.17700195 C254.14730704 116.72144504 258.37461065 122.555423 259.40869141 131.0090332 C259.49214485 141.63891586 257.97959199 149.04220487 250.62744141 157.05200195 C243.89443091 163.28518198 236.89261059 165.3209613 227.87744141 165.30200195 C226.64896484 165.30458008 225.42048828 165.3071582 224.15478516 165.30981445 C220.93994141 165.17700195 220.93994141 165.17700195 217.93994141 164.17700195 C212.70490305 163.78190472 209.34065417 164.24319345 204.93994141 167.17700195 C199.80732926 173.55808733 199.78809352 179.36415592 199.73461914 187.18994141 C199.72471954 188.08800003 199.71481995 188.98605865 199.70462036 189.91133118 C199.67310778 192.87095531 199.64828849 195.83059547 199.62353516 198.7902832 C199.60295679 200.84580394 199.58196008 202.90132052 199.56056213 204.95683289 C199.5054327 210.36053096 199.45598321 215.76426665 199.40771484 221.16802979 C199.34858883 227.65508376 199.28241115 234.14206916 199.21741486 240.62906647 C199.11952022 250.47833633 199.03058552 260.32765067 198.93994141 270.17700195 C184.08994141 270.17700195 169.23994141 270.17700195 153.93994141 270.17700195 C153.93994141 273.80700195 153.93994141 277.43700195 153.93994141 281.17700195 C150.90202484 297.33157005 141.57084387 310.86636843 128.45947266 320.5793457 C113.27775148 330.20620456 96.57706038 332.55808622 79.00244141 329.48950195 C63.71752519 325.08039151 50.50290974 315.68094957 41.93994141 302.17700195 C37.27627386 293.42050838 33.82654811 285.43973965 33.90087891 275.43481445 C33.90651855 274.44884277 33.9121582 273.46287109 33.91796875 272.44702148 C33.92884521 271.32336182 33.92884521 271.32336182 33.93994141 270.17700195 C32.17904175 270.21627808 32.17904175 270.21627808 30.38256836 270.25634766 C25.96756553 270.34782561 21.55264382 270.40460072 17.13696289 270.45166016 C15.23707934 270.47658457 13.33728944 270.51053719 11.43774414 270.55419922 C-5.6841945 270.93749255 -17.85605829 268.77891812 -30.73193359 256.5949707 C-38.52571002 248.33919207 -42.20664296 238.32654855 -42.21395874 227.19068909 C-42.21834099 226.37973327 -42.22272325 225.56877746 -42.2272383 224.73324722 C-42.24060719 222.01210385 -42.24680096 219.29099285 -42.25292969 216.56982422 C-42.26083238 214.61990717 -42.26910144 212.66999158 -42.27770996 210.72007751 C-42.30391854 204.31120193 -42.31924005 197.90231986 -42.33349609 191.4934082 C-42.33885693 189.2847029 -42.34423444 187.07599763 -42.34962845 184.8672924 C-42.37125866 175.67545036 -42.3899929 166.48361006 -42.40125084 157.291749 C-42.41747282 144.1345234 -42.45060665 130.97759392 -42.50765169 117.82047993 C-42.54642017 108.561674 -42.56589192 99.30294702 -42.5711714 90.04406208 C-42.57481639 84.51871209 -42.58674655 78.99367803 -42.61927414 73.46841621 C-42.64947494 68.2636378 -42.65562381 63.05936446 -42.64389038 57.85451698 C-42.64367063 55.95229962 -42.65189374 54.050058 -42.66954422 52.14792252 C-42.81347735 35.73262593 -40.12964615 23.81844263 -28.47802734 11.50512695 C-20.57502974 4.04438956 -10.72074829 0.08310954 0 0 Z " fill="#9ea4aa" transform="translate(42.06005859375,120.822998046875)"/>
<path d="M0 0 C12.59354385 9.80114279 22.40792984 22.92916504 25 39 C25.04194387 40.91364717 25.05328281 42.82813354 25.0390625 44.7421875 C25.03342285 45.72815918 25.0277832 46.71413086 25.02197266 47.72998047 C25.01472168 48.47908691 25.0074707 49.22819336 25 50 C26.76089966 49.96072388 26.76089966 49.96072388 28.55737305 49.9206543 C32.97237587 49.82917634 37.38729759 49.77240123 41.80297852 49.7253418 C43.70286207 49.70041738 45.60265196 49.66646476 47.50219727 49.62280273 C64.6241359 49.2395094 76.7959997 51.39808383 89.671875 63.58203125 C97.46565143 71.83780989 101.14658436 81.8504534 101.15390015 92.98631287 C101.16047353 94.20274659 101.16047353 94.20274659 101.1671797 95.44375473 C101.1805486 98.16489811 101.18674237 100.88600911 101.19287109 103.60717773 C101.20077379 105.55709478 101.20904285 107.50701038 101.21765137 109.45692444 C101.24385995 115.86580003 101.25918145 122.27468209 101.2734375 128.68359375 C101.27879834 130.89229906 101.28417585 133.10100432 101.28956985 135.30970955 C101.31120007 144.50155159 101.32993431 153.6933919 101.34119225 162.88525295 C101.35741423 176.04247855 101.39054806 189.19940804 101.44759309 202.35652202 C101.48636158 211.61532796 101.50583333 220.87405493 101.51111281 230.13293988 C101.5147578 235.65828986 101.52668795 241.18332392 101.55921555 246.70858574 C101.58941634 251.91336415 101.59556522 257.11763749 101.58383179 262.32248497 C101.58361203 264.22470233 101.59183514 266.12694395 101.60948563 268.02907944 C101.75341875 284.44437602 99.06958755 296.35855933 87.41796875 308.671875 C79.05386155 316.56791781 68.96566434 320.16180452 57.69842529 320.12025452 C56.85379581 320.12110894 56.00916632 320.12196337 55.138942 320.12284368 C52.30452059 320.12449276 49.47015816 320.11898644 46.63574219 320.11352539 C44.60562135 320.11324337 42.57550041 320.11340154 40.54537964 320.1139679 C35.0292546 320.11425529 29.51315121 320.10836791 23.99703121 320.10139394 C18.23412625 320.09515076 12.47122081 320.09455584 6.70831299 320.09336853 C-4.20675972 320.09025807 -15.12182244 320.0820485 -26.03689075 320.07201904 C-38.46238058 320.06084908 -50.8878709 320.05534522 -63.31336451 320.05032361 C-88.87558188 320.03986567 -114.43779038 320.02227171 -140 320 C-140.02312446 310.23849012 -140.04091561 300.4769867 -140.05181217 290.71545506 C-140.05704078 286.18325906 -140.06413801 281.65108173 -140.07543945 277.11889648 C-140.08626914 272.7487717 -140.09227701 268.37866492 -140.09487724 264.00852776 C-140.09673135 262.33749037 -140.10035168 260.66645403 -140.10573006 258.99542427 C-140.11294159 256.66302449 -140.1139909 254.33070007 -140.11352539 251.99829102 C-140.11712067 251.3005809 -140.12071594 250.60287079 -140.12442017 249.88401794 C-140.11405216 245.11405216 -140.11405216 245.11405216 -139 244 C-136.92002174 243.7234711 -134.8356692 243.47969925 -132.75 243.25 C-117.40965152 241.10079382 -103.9420135 234.05019949 -94 222 C-83.12517665 207.24625877 -79.76557662 190.9098211 -82.30029297 172.86181641 C-85.24806266 157.97276314 -94.53981242 144.97617605 -106.91015625 136.3046875 C-116.35823648 130.40625984 -125.93835532 126.94007656 -137.06640625 126.2109375 C-139 126 -139 126 -140 125 C-140.09492722 122.65746218 -140.12559791 120.34453896 -140.11352539 118.00170898 C-140.11367142 117.27004517 -140.11381744 116.53838135 -140.1139679 115.7845459 C-140.11326867 113.35503216 -140.10547585 110.92559417 -140.09765625 108.49609375 C-140.0957921 106.81600486 -140.09436819 105.13591543 -140.09336853 103.45582581 C-140.08954307 99.02526357 -140.07971256 94.5947339 -140.06866455 90.16418457 C-140.05665655 84.85284346 -140.05204832 79.54149148 -140.04621124 74.23014069 C-140.03650081 66.15340444 -140.01734447 58.07673973 -140 50 C-125.15 50 -110.3 50 -95 50 C-95 46.37 -95 42.74 -95 39 C-91.96208343 22.8454319 -82.63090246 9.31063352 -69.51953125 -0.40234375 C-48.14819705 -13.954089 -21.15448213 -14.1448989 0 0 Z " fill="#9ea4aa" transform="translate(411,71)"/>
</svg>
