<?xml version="1.0" encoding="UTF-8"?>
<svg version="1.1" xmlns="http://www.w3.org/2000/svg" width="512" height="512">
<path d="M0 0 C4.75653265 -3.10055461 9.37546489 -6.28556921 13.875 -9.75 C42.57735792 -30.64627732 78.46732173 -37.71217185 113.25561523 -32.40136719 C135.27053581 -28.72716678 156.37180473 -19.80134616 174 -6 C174.98226563 -5.24847656 175.96453125 -4.49695313 176.9765625 -3.72265625 C182.64496925 0.74637064 187.45664726 5.41054798 192 11 C192.68449219 11.77472656 193.36898438 12.54945312 194.07421875 13.34765625 C204.45046435 25.35367864 211.76590772 39.07375577 217 54 C217.37769531 55.0415625 217.75539063 56.083125 218.14453125 57.15625 C229.2835716 90.19789777 226.05593709 128.68947536 210.69921875 159.859375 C208.90944918 163.30819404 207.0051884 166.67224053 205 170 C200.51006131 169.41347648 196.77456816 168.2356462 192.625 166.4375 C191.03558594 165.75494141 191.03558594 165.75494141 189.4140625 165.05859375 C188.61742187 164.70925781 187.82078125 164.35992187 187 164 C188.03229484 161.38102975 189.09410859 158.78403285 190.21875 156.203125 C190.6415625 155.22859375 191.064375 154.2540625 191.5 153.25 C191.9228125 152.28578125 192.345625 151.3215625 192.78125 150.328125 C198.9159287 133.57573317 197.53840276 114.31278445 190.33984375 98.16796875 C182.3934832 81.52745374 168.98709965 69.14674653 152 62 C133.42295074 55.63426445 115.11396978 57.26087062 97.29296875 65.20703125 C80.62401199 73.48189248 68.91561876 88.5547243 63 106 C62.68160156 106.9075 62.36320312 107.815 62.03515625 108.75 C57.62578745 123.38016376 58.45077712 141.07017704 65.4140625 154.78515625 C66.27999971 156.27272995 67.18390723 157.73970958 68.14453125 159.16796875 C69 161 69 161 69.1015625 163.05859375 C67.27488153 166.27795701 63.90990498 166.80052898 60.5625 167.875 C44.40666459 173.52650491 31.16937024 183.31669364 23.53125 199.01953125 C19.86548348 207.49128817 17.69188809 215.31342022 17.6640625 224.5234375 C17.6574057 225.30965485 17.6507489 226.09587219 17.64389038 226.90591431 C17.63383242 228.55802088 17.62907122 230.21016753 17.62939453 231.86230469 C17.6250227 234.36202226 17.58863614 236.85996882 17.55078125 239.359375 C17.46395544 251.62851178 19.0827604 261.82685728 28 271 C36.86120995 278.15896675 45.67473558 280.05618743 56.94506836 280.20532227 C57.59957977 280.21522186 58.25409119 280.22512146 58.92843628 280.23532104 C61.06553686 280.26660028 63.20265957 280.29155871 65.33984375 280.31640625 C66.83200111 280.33700489 68.32415303 280.35800207 69.81629944 280.37937927 C73.72392329 280.43429973 77.63159715 280.48384007 81.53930664 280.53222656 C85.53471269 280.58266231 89.53004704 280.63823259 93.52539062 280.69335938 C101.35019952 280.80057309 109.17506846 280.90209808 117 281 C117 281.66 117 282.32 117 283 C115.671875 284.3046875 115.671875 284.3046875 113.75 285.875 C109.96965028 289.07891342 106.47360068 292.47337977 103 296 C99.13768299 299.90607755 95.23254554 303.67136619 91.046875 307.234375 C88.54285151 309.3943342 86.12002302 311.63487993 83.6875 313.875 C79.24749216 317.92521292 74.68065719 321.75534122 70.00390625 325.52734375 C66.50332522 328.40883633 63.09742675 331.38744562 59.6875 334.375 C53.27097732 339.97478604 46.68536073 345.29133447 39.94091797 350.48876953 C37.76880872 352.18000931 35.62048353 353.89913266 33.47265625 355.62109375 C31.8984739 356.87244162 30.32425554 358.1237442 28.75 359.375 C28.02965576 359.95822021 27.30931152 360.54144043 26.56713867 361.14233398 C16.94057637 368.74213627 7.43390429 373.22387931 -5 372 C-13.69276126 370.03064428 -20.11352745 365.45408626 -27 360 C-28.07991748 359.16301417 -29.1606781 358.32711531 -30.2421875 357.4921875 C-43.20856462 347.43636405 -55.91283639 337.03868845 -68.38476562 326.37695312 C-70.04834543 324.95878654 -71.71895876 323.54924683 -73.390625 322.140625 C-80.92477628 315.76883715 -88.20148411 309.16881003 -95.37890625 302.3984375 C-97.69835353 300.21186556 -100.0355834 298.0493295 -102.40234375 295.9140625 C-102.93714355 295.43074463 -103.47194336 294.94742676 -104.02294922 294.44946289 C-105.45143296 293.16255897 -106.8837604 291.87992509 -108.31640625 290.59765625 C-110.41289159 288.56830727 -112.28619777 286.55489961 -114.16772461 284.33764648 C-114.96671425 283.39827492 -114.96671425 283.39827492 -115.78184509 282.43992615 C-116.38483177 281.7271627 -116.38483177 281.7271627 -117 281 C-116.17473816 280.99413376 -115.34947632 280.98826752 -114.49920654 280.98222351 C-106.67377151 280.92401596 -98.84861341 280.85178181 -91.02344894 280.76428509 C-87.00165611 280.71979707 -82.97995957 280.68049533 -78.95800781 280.65356445 C-75.06743646 280.62731381 -71.17724005 280.58676313 -67.28690338 280.53681374 C-65.81201131 280.52029055 -64.3370546 280.50868665 -62.86208344 280.50238609 C-48.95353129 280.43703575 -36.77922112 279.19001165 -26.25390625 269.37109375 C-17.36875099 259.82121365 -16.81956422 248.82215563 -16.8125 236.375 C-16.80025391 235.26253906 -16.78800781 234.15007812 -16.77539062 233.00390625 C-16.74131886 213.49213933 -22.10025574 196.28992989 -35.5625 181.8125 C-45.10635068 172.71624292 -56.60926216 167.91682898 -69 164 C-67.96770516 161.38102975 -66.90589141 158.78403285 -65.78125 156.203125 C-57.62378083 137.40115338 -57.52060053 119.13433223 -64.39453125 99.7421875 C-70.81179485 83.94013955 -82.74819073 71.63284402 -98.203125 64.52734375 C-117.18307752 56.81392703 -137.77916591 56.54583797 -156.72265625 64.5078125 C-174.2370192 72.70278102 -185.02719635 85.08861063 -192 103 C-199.20098714 124.77173455 -195.58524741 143.77906712 -186 164 C-188.41339796 165.00858422 -190.83018675 166.00702673 -193.25 167 C-193.93191406 167.28617188 -194.61382812 167.57234375 -195.31640625 167.8671875 C-198.81415735 169.29345494 -201.16900189 170 -205 170 C-209.96072398 160.09916039 -214.89329824 150.19764781 -218.4375 139.6875 C-218.77031982 138.72481201 -218.77031982 138.72481201 -219.10986328 137.74267578 C-223.21916772 124.94801108 -224.56071894 112.0478696 -224.4375 98.6875 C-224.43412628 97.97043884 -224.43075256 97.25337769 -224.42727661 96.5145874 C-224.34880735 84.95345011 -223.48217224 74.07552182 -220 63 C-219.76925781 62.23655273 -219.53851563 61.47310547 -219.30078125 60.68652344 C-213.93028032 43.36026448 -205.18460924 27.47156967 -193 14 C-192.17113281 13.02933594 -191.34226563 12.05867188 -190.48828125 11.05859375 C-168.83124758 -13.95956668 -135.04662063 -31.33105029 -101.91796875 -33.87109375 C-63.18714448 -35.58209402 -30.09354684 -24.30827814 0 0 Z " fill="#9ea4aa" transform="translate(256,87)"/>
<path d="M0 0 C0.71800781 0.62390625 1.43601563 1.2478125 2.17578125 1.890625 C2.90796875 2.42300781 3.64015625 2.95539063 4.39453125 3.50390625 C5.14734375 4.06464844 5.90015625 4.62539063 6.67578125 5.203125 C21.49509488 15.55694383 38.71942873 19.97195254 56.67578125 17.38671875 C69.22257093 14.97916591 83.4994276 10.19997819 92.359375 0.5 C95.69331559 -1.40510891 96.29111967 -1.16683491 99.87109375 -0.21484375 C101.69173345 0.3932087 103.5015276 1.03443747 105.30078125 1.703125 C106.24203857 2.03844238 107.1832959 2.37375977 108.15307617 2.71923828 C121.1475515 7.51702554 131.27741442 14.2770689 137.98828125 26.703125 C142.58459425 36.99055853 143.6589684 46.9612864 143.55078125 58.140625 C143.56238281 59.35492188 143.57398438 60.56921875 143.5859375 61.8203125 C143.55956505 69.89028274 143.18989047 76.32128513 137.80078125 82.703125 C131.55769573 87.90569627 126.70616778 89.01013713 118.67474365 89.03106689 C117.35985458 89.03677704 116.04496552 89.04248718 114.69023132 89.04837036 C113.23977671 89.04961558 111.78932198 89.0507407 110.33886719 89.05175781 C108.80595277 89.05638897 107.2730395 89.06141403 105.74012756 89.06680298 C101.58086151 89.07990049 97.42161159 89.08636678 93.26232815 89.09081364 C90.66130546 89.0937487 88.06028714 89.09785433 85.45926666 89.10231781 C77.31407211 89.1159859 69.16888758 89.12565587 61.02368236 89.1295197 C51.63461495 89.13399859 42.24569325 89.15154151 32.85667014 89.1805203 C25.59024375 89.20216605 18.32385827 89.21222553 11.05739999 89.21356082 C6.72163805 89.21460679 2.38601321 89.22047028 -1.94971466 89.23838043 C-6.030779 89.25491121 -10.11160391 89.25699247 -14.1926899 89.24824142 C-15.68537349 89.24747372 -17.17807023 89.25177846 -18.67072105 89.26169968 C-27.83473776 89.31900823 -36.54778248 89.29828196 -44.19921875 83.640625 C-50.78124953 76.74516418 -50.3229817 68.91948514 -50.27026367 59.92260742 C-50.26180462 57.72542942 -50.29047622 55.53090305 -50.32226562 53.33398438 C-50.39491377 38.86760406 -46.6111388 25.93326609 -36.57421875 15.140625 C-29.50434718 8.63330235 -21.4280122 5.1307528 -12.51171875 1.828125 C-11.20328003 1.32442383 -11.20328003 1.32442383 -9.8684082 0.81054688 C-3.57942675 -1.40602655 -3.57942675 -1.40602655 0 0 Z " fill="#000000" transform="translate(81.82421875,264.109375)"/>
<path d="M0 0 C1.88671875 1.46484375 1.88671875 1.46484375 3.69140625 3.25390625 C14.68504199 13.99088123 31.61615212 18.14497987 46.51171875 18.52734375 C64.51750422 18.21248848 78.51351701 11.6040843 92.69921875 1.21484375 C95.69921875 -0.78515625 95.69921875 -0.78515625 97.71704102 -0.46484375 C98.47557373 -0.19929688 99.23410645 0.06625 100.015625 0.33984375 C100.85794678 0.63133301 101.70026855 0.92282227 102.56811523 1.22314453 C103.45700439 1.55040527 104.34589355 1.87766602 105.26171875 2.21484375 C106.61728882 2.70380127 106.61728882 2.70380127 108.00024414 3.20263672 C116.74516461 6.44757248 124.44952258 10.09713423 130.69921875 17.21484375 C131.17875 17.70339844 131.65828125 18.19195312 132.15234375 18.6953125 C139.76690864 26.79059487 142.84045112 36.37628212 142.90234375 47.26953125 C142.90804382 48.04869904 142.9137439 48.82786682 142.9196167 49.63064575 C142.92904521 51.27637381 142.93559213 52.92212056 142.93945312 54.56787109 C142.94915829 57.07423088 142.98020082 59.57976997 143.01171875 62.0859375 C143.01824967 63.68879724 143.02349979 65.29166281 143.02734375 66.89453125 C143.03969055 67.63847137 143.05203735 68.3824115 143.0647583 69.14889526 C143.04097828 74.75403722 141.7802815 78.74917953 138.15625 83.04296875 C137.61355469 83.5121875 137.07085937 83.98140625 136.51171875 84.46484375 C135.98191406 84.944375 135.45210937 85.42390625 134.90625 85.91796875 C127.28967128 90.39355129 118.14609686 89.50562558 109.62939453 89.48950195 C108.1075109 89.49385469 106.58562945 89.4990397 105.06375122 89.50498962 C100.94795741 89.51833083 96.8322557 89.51896373 92.71644449 89.51642632 C89.27231326 89.51535325 85.82820041 89.52024861 82.38407314 89.52503175 C74.25424429 89.53611017 66.12446165 89.53657379 57.99462891 89.53051758 C49.62627083 89.52447923 41.25808094 89.53678907 32.88975155 89.55808765 C25.68778419 89.57573918 18.4858702 89.5816994 11.28388202 89.5784499 C6.99006184 89.57664248 2.69636165 89.5792189 -1.59743881 89.59316444 C-5.63752288 89.60579607 -9.67734595 89.60374864 -13.7174263 89.59075356 C-15.1935612 89.58839975 -16.66971479 89.59107922 -18.14582825 89.59937668 C-36.85693771 89.69690757 -36.85693771 89.69690757 -43.7734375 84.27734375 C-44.29808594 83.59671875 -44.82273437 82.91609375 -45.36328125 82.21484375 C-45.91113281 81.53421875 -46.45898438 80.85359375 -47.0234375 80.15234375 C-49.63685539 76.18826034 -49.49164081 72.26122058 -49.5390625 67.6875 C-49.54713425 66.94334335 -49.55520599 66.19918671 -49.56352234 65.43247986 C-49.57735273 63.85304074 -49.58807957 62.27357187 -49.59594727 60.6940918 C-49.60738833 59.09894891 -49.62771315 57.50384188 -49.6574707 55.90893555 C-49.95989588 39.68441601 -46.87229149 27.43883594 -35.80078125 15.08984375 C-30.4566809 9.98911799 -24.0069832 7.08284062 -17.30078125 4.21484375 C-16.65028809 3.92319336 -15.99979492 3.63154297 -15.32958984 3.33105469 C-4.37163274 -1.49184751 -4.37163274 -1.49184751 0 0 Z " fill="#000000" transform="translate(337.30078125,263.78515625)"/>
<path d="M0 0 C10.98208895 11.42235087 14.42995044 25.94882207 14.36743164 41.25927734 C14.09533536 55.08660563 8.73089786 66.18220227 -0.55859375 76.38671875 C-12.64768112 87.81725661 -28.00863072 92.58184192 -44.3359375 92.41015625 C-59.17587465 91.55491974 -70.79886219 84.71903408 -80.99609375 74.19921875 C-90.94651691 62.83647747 -94.65567637 49.8890072 -94.2734375 34.859375 C-93.18834559 20.53921842 -86.89882842 5.8012763 -75.99609375 -3.80078125 C-51.80872327 -22.03210254 -22.32724396 -20.14258212 0 0 Z " fill="#000000" transform="translate(423.99609375,175.80078125)"/>
<path d="M0 0 C10.34530699 10.8960988 15.20103793 25.47994668 15.34765625 40.3046875 C14.66502788 55.52230529 8.7278316 68.26510242 -2.3515625 78.71875 C-15.31025445 89.98717779 -30.7821086 93.72427016 -47.6875 92.75 C-61.76006625 90.71748737 -73.4214514 83.3711353 -82.6875 72.75 C-91.89094628 59.97920021 -95.34110459 45.94183045 -93.2265625 30.3515625 C-90.71991824 16.99262309 -85.33410741 7.26050008 -75.6875 -2.25 C-75.11128906 -2.83652344 -74.53507812 -3.42304688 -73.94140625 -4.02734375 C-53.28032233 -23.49930054 -19.35194944 -17.99984816 0 0 Z " fill="#000000" transform="translate(167.6875,175.25)"/>
</svg>
