<?xml version="1.0" encoding="UTF-8"?>
<svg version="1.1" xmlns="http://www.w3.org/2000/svg" width="512" height="512">
<path d="M0 0 C3.92445117 0.00258618 7.84890037 0.00016909 11.77335167 -0.00138617 C18.35559072 -0.00319003 24.93781845 -0.00084898 31.52005577 0.00395441 C39.0590784 0.00939354 46.59807395 0.00762961 54.13709593 0.00212801 C60.68652304 -0.00245457 67.23594215 -0.00302885 73.78537035 -0.00043333 C77.66352499 0.00110151 81.54166703 0.00140225 85.41982079 -0.00196981 C131.79234163 -0.03677223 131.79234163 -0.03677223 151.01468468 2.4468255 C152.04770714 2.57726252 153.0807296 2.70769953 154.14505577 2.84208918 C179.59507418 6.22473667 202.70145101 14.87121077 222.07718468 32.1343255 C222.9047628 32.83041925 223.73234093 33.526513 224.58499718 34.2437005 C250.30962485 56.3394622 262.97597277 86.0585466 266.82718468 119.1968255 C266.94287804 120.18013849 267.0585714 121.16345148 267.17777061 122.17656183 C269.44737924 144.20176829 269.24720559 166.51854179 269.27737331 188.63311005 C269.28036363 190.72679079 269.2844767 192.82046677 269.28887749 194.91414499 C269.30242576 201.52368899 269.31216112 208.13322132 269.31607938 214.74277818 C269.32057195 222.26828316 269.33822922 229.79360763 269.36707997 237.31905782 C269.38887977 243.21712506 269.39879279 249.11514205 269.4001205 255.01324904 C269.40115271 258.50176832 269.40671587 261.99011504 269.42494011 265.47859049 C269.61988652 309.28244598 260.23341337 347.02881246 229.07718468 379.1343255 C206.0462312 402.01585965 175.18034982 414.60974079 143.07718468 417.1343255 C141.93636436 417.10596613 140.79554405 417.07760675 139.62015343 417.048388 C133.34460364 416.97394495 129.77420106 417.81407236 125.24808311 422.10161066 C122.7424152 424.68721302 120.39458447 427.37987054 118.07718468 430.1343255 C113.15627248 435.89664879 108.01202974 441.353494 102.63968468 446.6968255 C101.92747765 447.41289972 101.21527061 448.12897394 100.48148155 448.86674738 C83.96476512 465.35346069 65.38949562 480.71690642 41.01468468 481.5093255 C23.64276118 480.91890719 8.73584117 472.52292328 -3.92281532 461.1343255 C-4.80815956 460.33784601 -5.6935038 459.54136652 -6.60567665 458.72075129 C-13.66285464 452.30557667 -20.50428401 445.70968909 -27.2345829 438.95292902 C-28.88016194 437.30191332 -30.5311259 435.65641464 -32.18258095 434.01127863 C-33.25126163 432.94193818 -34.31963262 431.87228812 -35.38765907 430.80229425 C-35.87105247 430.32092508 -36.35444588 429.83955591 -36.85248756 429.3435998 C-39.24511578 426.9346261 -41.50131344 424.47278556 -43.64376259 421.84257746 C-46.13036579 418.88768841 -46.77493024 418.27165151 -50.51046181 417.82475519 C-51.5939994 417.73613214 -52.677537 417.6475091 -53.79390907 417.5562005 C-93.71783473 414.04567143 -129.05603028 400.25949177 -155.59566689 368.81010675 C-176.28342687 343.36056063 -186.07996019 313.20470967 -186.06807899 280.60112238 C-186.0710775 279.25434003 -186.0744816 277.90755854 -186.07825661 276.56077814 C-186.08704785 272.91871098 -186.08943315 269.27666737 -186.09007239 265.63459063 C-186.09078766 263.34157686 -186.0929313 261.0485689 -186.09556961 258.75555658 C-186.1048192 250.70342369 -186.1089065 242.65130728 -186.10811806 234.59916925 C-186.10752297 227.18501718 -186.11796248 219.77093922 -186.13386172 212.3568058 C-186.1471344 205.92983135 -186.15229362 199.50288043 -186.15166265 193.07589245 C-186.15141259 189.26595217 -186.15397806 185.45607726 -186.1648407 181.64615107 C-186.20683156 165.79176517 -185.96117328 150.00758153 -184.99434853 134.17924738 C-184.95279589 133.49230012 -184.91124326 132.80535286 -184.86843145 132.09758902 C-182.42390352 92.60878814 -169.5408903 59.39469193 -139.77584267 32.24614191 C-101.00668916 -1.91079838 -48.59538559 -0.04225378 0 0 Z M13.07718468 51.1343255 C11.87835655 51.46303644 10.67952843 51.79174738 9.44437218 52.13041925 C-4.73950732 56.40927225 -17.85705293 63.23842707 -28.92281532 73.1343255 C-29.73879189 73.82010675 -30.55476845 74.505888 -31.39547157 75.2124505 C-42.40110839 84.67015386 -50.30266174 95.36900693 -56.92281532 108.1343255 C-57.3946122 109.03666925 -57.86640907 109.939013 -58.35250282 110.8687005 C-64.68723606 123.85293632 -67.80748645 137.80544765 -68.92281532 152.1343255 C-68.99500282 153.02764582 -69.06719032 153.92096613 -69.14156532 154.84135675 C-70.21159993 183.15268916 -58.96094993 210.13604379 -40.61031532 231.1968255 C-39.06429179 232.85814571 -37.50143532 234.50394748 -35.92281532 236.1343255 C-35.1364872 236.94643488 -34.35015907 237.75854425 -33.54000282 238.595263 C-15.54434077 256.040599 9.97938813 267.16122838 35.07718468 268.1343255 C36.00917686 268.185888 36.94116905 268.2374505 37.90140343 268.2905755 C64.41900246 269.08909793 92.32066978 260.05630687 112.07718468 242.1343255 C112.90218468 241.43823175 113.72718468 240.742138 114.57718468 240.0249505 C134.51293726 222.88506566 148.27249311 197.40846447 151.07718468 171.1343255 C151.69729594 156.98970927 152.06223441 142.8248996 148.07718468 129.1343255 C147.73687218 127.91229425 147.39655968 126.690263 147.04593468 125.4312005 C142.66611507 111.04881991 135.59865953 98.75709135 126.07718468 87.1343255 C125.39140343 86.28354425 124.70562218 85.432763 123.99905968 84.5562005 C107.0017761 64.53717762 81.10922391 51.00965923 55.07718468 48.1343255 C40.9319383 47.50802148 26.76881724 47.15569816 13.07718468 51.1343255 Z M-66.48531532 328.8843255 C-67.58649696 329.39974909 -67.58649696 329.39974909 -68.7099247 329.92558527 C-74.99793114 332.96640424 -80.57109219 336.63751022 -85.92281532 341.1343255 C-86.77101845 341.83299738 -87.61922157 342.53166925 -88.49312782 343.251513 C-99.59208997 352.60526173 -99.59208997 352.60526173 -105.92281532 365.1343255 C-88.20551513 375.19897995 -71.74153159 380.61955912 -51.23531532 381.5718255 C-32.31713423 382.50979628 -21.3110164 391.67964951 -8.92281532 405.1343255 C-7.77089882 406.44655012 -6.6238442 407.76305682 -5.48140907 409.08354425 C14.39475171 432.55334772 14.39475171 432.55334772 41.01468468 445.5718255 C52.30067634 445.26424083 60.95232516 436.07252373 68.47464561 428.68364191 C70.50015425 426.72540337 72.59497035 424.85389563 74.69779015 422.97954035 C79.19482585 418.9583351 83.39689498 414.79805901 87.45218468 410.3218255 C89.32477448 408.25712299 91.19981747 406.19468518 93.07718468 404.1343255 C93.87745079 403.25260675 93.87745079 403.25260675 94.6938839 402.3530755 C105.1391967 390.97024689 115.45866038 382.66022694 131.50687218 381.73979425 C152.71379115 380.38805742 170.68763649 375.94055485 189.07718468 365.1343255 C184.21984181 350.3712778 166.90233834 337.82423643 153.92093468 330.954638 C138.22161866 323.19548968 121.98595437 320.82991861 104.62015343 320.84379816 C103.10405209 320.83779884 101.58795378 320.83099012 100.07185936 320.82344294 C95.98662998 320.80591306 91.9014846 320.80109295 87.81622124 320.79981136 C85.25242322 320.79838116 82.68864596 320.79409517 80.12485313 320.78881693 C71.1475243 320.77035583 62.17025452 320.76214091 53.19290733 320.76372004 C44.87915309 320.76491861 36.56565962 320.74386204 28.25197124 320.71223271 C21.07099683 320.68590523 13.89010669 320.67535966 6.70908451 320.67663085 C2.43955028 320.67713591 -1.82975212 320.67171042 -6.09923744 320.65027475 C-37.079278 320.12447223 -37.079278 320.12447223 -66.48531532 328.8843255 Z " fill="#9ea4aa" transform="translate(212.92281532287598,14.865674495697021)"/>
</svg>
