<?xml version="1.0" encoding="UTF-8"?>
<svg version="1.1" xmlns="http://www.w3.org/2000/svg" width="512" height="512">
<path d="M0 0 C5.98901732 4.8862159 11.53961895 10.25788126 16.71582031 15.99536133 C17.30509811 16.581633 17.89437592 17.16790466 18.50151062 17.77194214 C24.63141325 24.50401926 24.64686567 30.39739363 24.39941406 39.21801758 C24.38633091 40.57276328 24.37637959 41.92754248 24.36940002 43.28233337 C24.34288533 46.8193884 24.27431851 50.35437714 24.19647217 53.890625 C24.12439603 57.51053931 24.09279494 61.1307931 24.05761719 64.7512207 C23.98292198 71.83343769 23.86371948 78.91426343 23.71582031 85.99536133 C23.09894348 85.85488373 22.48206665 85.71440613 21.84649658 85.56967163 C21.03670349 85.38707794 20.2269104 85.20448425 19.39257812 85.01635742 C18.18882538 84.74376602 18.18882538 84.74376602 16.96075439 84.46566772 C6.76740543 82.33019423 -3.36593239 84.64697876 -12.34277344 89.72583008 C-18.53738385 93.93682033 -22.81379273 98.36703383 -26.28417969 104.99536133 C-26.69539062 105.71981445 -27.10660156 106.44426758 -27.53027344 107.19067383 C-32.04914861 116.41605913 -31.85582458 128.41420153 -28.65917969 138.05786133 C-24.0512871 148.70757112 -16.08851645 156.83169684 -5.36230469 161.26879883 C-0.51506307 162.96351112 3.97987788 163.14670639 9.09082031 163.12036133 C9.83332031 163.12422852 10.57582031 163.1280957 11.34082031 163.13208008 C12.07042969 163.13079102 12.80003906 163.12950195 13.55175781 163.12817383 C14.20708496 163.1270459 14.86241211 163.12591797 15.53759766 163.12475586 C18.30690206 162.96024887 20.98732599 162.4850412 23.71582031 161.99536133 C23.72390717 162.54580109 23.73199402 163.09624084 23.74032593 163.6633606 C23.8265647 169.40641895 23.9260762 175.14913981 24.03320312 180.8918457 C24.07142184 183.03338948 24.106287 185.1749959 24.13769531 187.31665039 C24.18350011 190.39988549 24.24146948 193.48269204 24.30175781 196.56567383 C24.31908463 197.99570236 24.31908463 197.99570236 24.33676147 199.45462036 C24.44372097 204.30195075 24.6678309 208.50361379 26.71582031 212.99536133 C31.82949518 215.55219876 37.46522926 213.66902371 42.59082031 211.99536133 C51.59212392 209.31878322 59.1155512 208.69522677 67.71582031 212.99536133 C73.31950794 216.75102431 78.04602534 221.31618143 79.71582031 227.99536133 C80.60065417 236.40128295 80.74200764 243.94815461 75.71582031 250.99536133 C75.17957031 251.88223633 74.64332031 252.76911133 74.09082031 253.68286133 C68.40298512 259.22101665 62.49613281 261.32412453 54.59082031 261.55786133 C48.11712355 261.37365044 42.2383501 260.15457322 36.08251953 258.15576172 C32.77309829 257.15140367 31.0831081 256.8513172 27.81738281 258.13208008 C25.38172301 260.29157771 25.2248379 260.86246301 24.71582031 263.99536133 C24.59901657 266.48049074 24.53104645 268.94015412 24.51049805 271.42602539 C24.50059845 272.16788086 24.49069885 272.90973633 24.48049927 273.67407227 C24.44897884 276.11967812 24.42416436 278.56530337 24.39941406 281.01098633 C24.37883636 282.70921323 24.35783967 284.4074351 24.33644104 286.10565186 C24.28130465 290.57063723 24.23185825 295.03566818 24.18359375 299.50073242 C24.13331709 304.05887905 24.07766323 308.61695966 24.02246094 313.17504883 C23.91498253 322.11509657 23.81351472 331.05520169 23.71582031 339.99536133 C19.48183831 338.37789512 15.88720385 336.2890821 12.15332031 333.74536133 C11.50911133 333.310625 10.86490234 332.87588867 10.20117188 332.42797852 C-15.44175637 315.04602196 -40.41076605 296.74620746 -64.28417969 276.99536133 C-65.13625 276.30571289 -65.98832031 275.61606445 -66.86621094 274.90551758 C-78.82316716 265.22440954 -90.35660535 255.08019639 -101.59228516 244.57397461 C-103.39187131 242.89488022 -105.19883861 241.22398716 -107.00683594 239.55395508 C-127.03674886 221.01709759 -127.03674886 221.01709759 -135.52636719 211.03051758 C-137.63682109 208.58708095 -139.83710847 206.23617312 -142.03417969 203.87036133 C-147.81608828 197.51988382 -153.08602318 190.82743074 -158.28417969 183.99536133 C-158.75533203 183.38112305 -159.22648437 182.76688477 -159.71191406 182.1340332 C-183.55573444 150.93863928 -197.12922457 114.52367272 -192.06542969 74.90942383 C-188.45189932 50.50848339 -177.26050034 29.71495347 -160.28417969 11.99536133 C-159.5996875 11.24770508 -158.91519531 10.50004883 -158.20996094 9.72973633 C-147.7140223 -1.36763317 -135.08776266 -8.78852712 -121.28417969 -15.00463867 C-119.70056641 -15.72973633 -119.70056641 -15.72973633 -118.08496094 -16.46948242 C-79.74327306 -32.62110254 -32.52615078 -25.55839279 0 0 Z " fill="#9ea4aa" transform="translate(224.2841796875,98.004638671875)"/>
<path d="M0 0 C25.02528588 19.69616025 41.67000248 46.11555003 46.08984375 77.88671875 C46.49843201 83.14084163 46.5766452 88.36978645 46.52734375 93.63671875 C46.52278168 94.67954514 46.52278168 94.67954514 46.51812744 95.74343872 C46.44443679 107.1826843 45.43534102 117.9092246 42.08984375 128.88671875 C41.89148926 129.57620605 41.69313477 130.26569336 41.48876953 130.97607422 C36.15510903 149.17501605 26.68083946 165.96765894 15.08984375 180.88671875 C14.17170367 182.09101523 13.25373917 183.29544559 12.3359375 184.5 C7.50500025 190.78576543 2.49202602 196.83156626 -2.875 202.671875 C-4.69482794 204.65237872 -6.46581956 206.66298152 -8.22265625 208.69921875 C-19.31168377 221.39055988 -30.84868537 234.09315666 -43.734375 244.9921875 C-46.17624977 247.11841598 -48.53101753 249.32433592 -50.890625 251.54101562 C-56.46628006 256.77785156 -62.11391459 261.81126442 -68.08984375 266.59375 C-70.70664845 268.72126297 -73.25449225 270.90647547 -75.79589844 273.12231445 C-82.80919179 279.22892011 -90.06807672 284.92907046 -97.48828125 290.53125 C-101.24353981 293.36768642 -104.94995209 296.26167843 -108.64819336 299.171875 C-117.07475337 305.7930684 -125.6684843 312.09761563 -134.47753906 318.19873047 C-137.26023816 320.1296399 -140.03451812 322.07234809 -142.80859375 324.015625 C-144.86308739 325.45210023 -146.9177735 326.88830021 -148.97265625 328.32421875 C-149.93647217 328.99888184 -150.90028809 329.67354492 -151.89331055 330.36865234 C-166.99411717 340.88671875 -166.99411717 340.88671875 -169.91015625 340.88671875 C-169.91015625 319.10671875 -169.91015625 297.32671875 -169.91015625 274.88671875 C-167.93015625 275.21671875 -165.95015625 275.54671875 -163.91015625 275.88671875 C-151.10108451 276.66573508 -140.115473 276.04997978 -129.75390625 267.578125 C-121.78747275 260.26993495 -116.45008734 252.1680751 -115.63671875 241.19921875 C-115.21868784 228.67285702 -117.57693885 218.77655163 -125.83984375 208.921875 C-133.84162322 201.0559748 -143.79792525 196.88850806 -154.97265625 196.57421875 C-158.48381049 196.7091625 -161.78090497 197.18776615 -165.21875 197.90625 C-166.10232178 198.08905518 -166.98589355 198.27186035 -167.89624023 198.46020508 C-168.89312866 198.67132935 -168.89312866 198.67132935 -169.91015625 198.88671875 C-169.9182431 198.3215303 -169.92632996 197.75634186 -169.93466187 197.17402649 C-170.02079935 191.28514315 -170.12030697 185.39659285 -170.22753906 179.50805664 C-170.26579365 177.31117349 -170.30065265 175.11422845 -170.33203125 172.91723633 C-170.37775785 169.75709943 -170.43574043 166.59738725 -170.49609375 163.4375 C-170.50764496 162.45711258 -170.51919617 161.47672516 -170.53109741 160.46662903 C-170.58700986 153.91660222 -170.58700986 153.91660222 -172.91015625 147.88671875 C-176.36236345 146.0739385 -178.20926336 145.73408375 -182.03125 146.56640625 C-183.12566406 146.96085938 -184.22007812 147.3553125 -185.34765625 147.76171875 C-194.64263022 150.63756603 -204.32340159 151.93324068 -213.47265625 147.88671875 C-219.69832469 144.24040379 -223.72109981 138.72012465 -225.91015625 131.88671875 C-226.68124046 123.87999554 -227.2392476 115.42832807 -221.91015625 108.88671875 C-216.06133041 102.50735782 -209.98772578 98.90425507 -201.28515625 98.44921875 C-195.6799386 98.59649649 -190.59913072 100.26909058 -185.3046875 102.01171875 C-181.68028479 102.94597215 -178.63772879 103.12396939 -174.91015625 102.88671875 C-172.81614919 101.49071404 -172.13602127 100.55919016 -171.34176636 98.19444275 C-170.77449418 95.16136362 -170.83386997 92.29935441 -170.87939453 89.21313477 C-170.89549687 87.84021952 -170.91119445 86.46729948 -170.92654419 85.09437561 C-170.9360825 84.36938433 -170.9456208 83.64439304 -170.95544815 82.89743233 C-171.00735494 78.21554543 -171.0012312 73.53327996 -171.00680733 68.85115147 C-171.01499446 64.75159102 -171.0424964 60.65393901 -171.11230469 56.55493164 C-171.1789411 52.57480203 -171.19062531 48.59768739 -171.16704941 44.6171093 C-171.16765385 43.11215768 -171.18735988 41.60707087 -171.22781754 40.10266304 C-171.47406406 30.44637357 -169.85126467 24.28105272 -163.17114449 17.12184238 C-161.76866578 15.69239904 -160.33969634 14.28909883 -158.91015625 12.88671875 C-157.34480893 11.18099404 -155.78178004 9.47313396 -154.22265625 7.76171875 C-112.81787091 -32.40613118 -45.55399026 -33.08014595 0 0 Z " fill="#9ea4aa" transform="translate(433.91015625,97.11328125)"/>
</svg>
