<?xml version="1.0" encoding="UTF-8"?>
<svg version="1.1" xmlns="http://www.w3.org/2000/svg" width="512" height="512">
<path d="M0 0 C1.87706635 -0.0099852 1.87706635 -0.0099852 3.79205322 -0.02017212 C6.4347562 -0.03027668 9.07704747 -0.03585775 11.71972656 -0.03466797 C14.41010458 -0.03450555 17.09980083 -0.04837568 19.79003906 -0.07568359 C23.69356832 -0.1125274 27.59631362 -0.12214986 31.5 -0.125 C32.68994568 -0.13937103 33.87989136 -0.15374207 35.105896 -0.16854858 C46.2215291 -0.10843377 55.01193377 2.38570654 63.078125 10.20703125 C71.20531513 19.13710911 72.90594149 29.41050068 74.13671875 41.09765625 C75.25344459 59.08653259 75.25344459 59.08653259 82.21630859 75.046875 C87.49537225 78.84543692 93.52961973 80.49415078 100.015625 80.3359375 C105.11662469 79.26649714 109.32308614 75.3934943 113.453125 72.3359375 C115.06369764 71.1600132 116.67437594 69.98423359 118.28515625 68.80859375 C119.86229545 67.65147263 121.43913237 66.49393937 123.015625 65.3359375 C146.95535402 47.75986263 146.95535402 47.75986263 162.015625 49.3359375 C173.37470324 51.46800424 181.34276877 58.19729822 189.33984375 66.15625 C190.08974075 66.8961618 190.83963776 67.63607361 191.61225891 68.39840698 C193.18494641 69.95600666 194.75368424 71.51760359 196.31860352 73.08300781 C198.6918832 75.44972677 201.08813016 77.79138098 203.48632812 80.1328125 C213.51586175 90.05065458 222.77418469 99.40870392 223.328125 114.3359375 C223.00160115 127.57103738 216.38181249 136.88685377 208.73583984 147.04638672 C206.33583832 150.24071176 203.9780984 153.46489115 201.62866211 156.6965332 C200.49431473 158.25600193 199.35347509 159.81077473 198.20532227 161.36010742 C197.42692993 162.42322144 197.42692993 162.42322144 196.6328125 163.5078125 C195.94614502 164.4373877 195.94614502 164.4373877 195.24560547 165.38574219 C192.58658986 169.60174391 191.72707581 172.0742854 192.76611328 177.0234375 C195.51229171 186.71145872 195.51229171 186.71145872 202.27575684 193.70361328 C208.90069135 196.15956325 215.90270015 196.68960562 222.890625 197.3359375 C226.01799034 197.71131809 229.14100761 198.11263811 232.26419067 198.52124023 C234.19790813 198.76488922 236.1348222 198.98486992 238.07443237 199.17602539 C249.12762363 200.35391729 257.4501436 204.12753969 265.015625 212.3359375 C271.84728604 221.08379614 272.33151689 229.52997069 272.3515625 240.3203125 C272.3582193 241.57169006 272.3648761 242.82306763 272.37173462 244.11236572 C272.38183918 246.7550687 272.38742025 249.39735997 272.38623047 252.04003906 C272.38606805 254.73041708 272.39993818 257.42011333 272.42724609 260.11035156 C272.4640899 264.01388082 272.47371236 267.91662612 272.4765625 271.8203125 C272.49093353 273.01025818 272.50530457 274.20020386 272.52011108 275.4262085 C272.45999627 286.5418416 269.96585596 295.33224627 262.14453125 303.3984375 C253.21445339 311.52562763 242.94106182 313.22625399 231.25390625 314.45703125 C213.26502991 315.57375709 213.26502991 315.57375709 197.3046875 322.53662109 C193.50612558 327.81568475 191.85741172 333.84993223 192.015625 340.3359375 C193.08506536 345.43693719 196.9580682 349.64339864 200.015625 353.7734375 C201.1915493 355.38401014 202.36732891 356.99468844 203.54296875 358.60546875 C204.70008987 360.18260795 205.85762313 361.75944487 207.015625 363.3359375 C224.59169987 387.27566652 224.59169987 387.27566652 223.015625 402.3359375 C220.88355826 413.69501574 214.15426428 421.66308127 206.1953125 429.66015625 C205.4554007 430.41005325 204.71548889 431.15995026 203.95315552 431.93257141 C202.39555584 433.50525891 200.83395891 435.07399674 199.26855469 436.63891602 C196.90183573 439.0121957 194.56018152 441.40844266 192.21875 443.80664062 C182.30090792 453.83617425 172.94285858 463.09449719 158.015625 463.6484375 C144.78052512 463.32191365 135.46470873 456.70212499 125.30517578 449.05615234 C122.11085074 446.65615082 118.88667135 444.2984109 115.6550293 441.94897461 C114.09556057 440.81462723 112.54078777 439.67378759 110.99145508 438.52563477 C109.92834106 437.74724243 109.92834106 437.74724243 108.84375 436.953125 C108.2240332 436.49534668 107.60431641 436.03756836 106.96582031 435.56591797 C102.74981859 432.90690236 100.2772771 432.04738831 95.328125 433.08642578 C85.64010378 435.83260421 85.64010378 435.83260421 78.64794922 442.59606934 C76.19199925 449.22100385 75.66195688 456.22301265 75.015625 463.2109375 C74.64024441 466.33830284 74.23892439 469.46132011 73.83032227 472.58450317 C73.58667328 474.51822063 73.36669258 476.4551347 73.17553711 478.39474487 C71.99764521 489.44793613 68.22402281 497.7704561 60.015625 505.3359375 C51.26776636 512.16759854 42.82159181 512.65182939 32.03125 512.671875 C30.77987244 512.6785318 29.52849487 512.6851886 28.23919678 512.69204712 C25.5964938 512.70215168 22.95420253 512.70773275 20.31152344 512.70654297 C17.62114542 512.70638055 14.93144917 512.72025068 12.24121094 512.74755859 C8.33768168 512.7844024 4.43493638 512.79402486 0.53125 512.796875 C-0.65869568 512.81124603 -1.84864136 512.82561707 -3.074646 512.84042358 C-14.1902791 512.78030877 -22.98068377 510.28616846 -31.046875 502.46484375 C-39.17406513 493.53476589 -40.87469149 483.26137432 -42.10546875 471.57421875 C-43.22219459 453.58534241 -43.22219459 453.58534241 -50.18505859 437.625 C-55.46412225 433.82643808 -61.49836973 432.17772422 -67.984375 432.3359375 C-73.08537469 433.40537786 -77.29183614 437.2783807 -81.421875 440.3359375 C-83.03244764 441.5118618 -84.64312594 442.68764141 -86.25390625 443.86328125 C-87.83104545 445.02040237 -89.40788237 446.17793563 -90.984375 447.3359375 C-114.92410402 464.91201237 -114.92410402 464.91201237 -129.984375 463.3359375 C-141.34345324 461.20387076 -149.31151877 454.47457678 -157.30859375 446.515625 C-158.05849075 445.7757132 -158.80838776 445.03580139 -159.58100891 444.27346802 C-161.15369641 442.71586834 -162.72243424 441.15427141 -164.28735352 439.58886719 C-166.6606332 437.22214823 -169.05688016 434.88049402 -171.45507812 432.5390625 C-181.48461175 422.62122042 -190.74293469 413.26317108 -191.296875 398.3359375 C-190.97035115 385.10083762 -184.35056249 375.78502123 -176.70458984 365.62548828 C-174.30458832 362.43116324 -171.9468484 359.20698385 -169.59741211 355.9753418 C-168.46306473 354.41587307 -167.32222509 352.86110027 -166.17407227 351.31176758 C-165.65514404 350.6030249 -165.13621582 349.89428223 -164.6015625 349.1640625 C-164.14378418 348.5443457 -163.68600586 347.92462891 -163.21435547 347.28613281 C-160.55533986 343.07013109 -159.69582581 340.5975896 -160.73486328 335.6484375 C-163.48104171 325.96041628 -163.48104171 325.96041628 -170.24450684 318.96826172 C-176.86944135 316.51231175 -183.87145015 315.98226938 -190.859375 315.3359375 C-193.98674034 314.96055691 -197.10975761 314.55923689 -200.23294067 314.15063477 C-202.16665813 313.90698578 -204.1035722 313.68700508 -206.04318237 313.49584961 C-217.09637363 312.31795771 -225.4188936 308.54433531 -232.984375 300.3359375 C-239.81603604 291.58807886 -240.30026689 283.14190431 -240.3203125 272.3515625 C-240.3302977 270.47449615 -240.3302977 270.47449615 -240.34048462 268.55950928 C-240.35058918 265.9168063 -240.35617025 263.27451503 -240.35498047 260.63183594 C-240.35481805 257.94145792 -240.36868818 255.25176167 -240.39599609 252.56152344 C-240.4328399 248.65799418 -240.44246236 244.75524888 -240.4453125 240.8515625 C-240.45968353 239.66161682 -240.47405457 238.47167114 -240.48886108 237.2456665 C-240.42874627 226.1300334 -237.93460596 217.33962873 -230.11328125 209.2734375 C-221.18320339 201.14624737 -210.90981182 199.44562101 -199.22265625 198.21484375 C-181.23377991 197.09811791 -181.23377991 197.09811791 -165.2734375 190.13525391 C-161.47487558 184.85619025 -159.82616172 178.82194277 -159.984375 172.3359375 C-161.05381536 167.23493781 -164.9268182 163.02847636 -167.984375 158.8984375 C-169.1602993 157.28786486 -170.33607891 155.67718656 -171.51171875 154.06640625 C-172.66883987 152.48926705 -173.82637313 150.91243013 -174.984375 149.3359375 C-192.56044987 125.39620848 -192.56044987 125.39620848 -190.984375 110.3359375 C-188.85230826 98.97685926 -182.12301428 91.00879373 -174.1640625 83.01171875 C-173.4241507 82.26182175 -172.68423889 81.51192474 -171.92190552 80.73930359 C-170.36430584 79.16661609 -168.80270891 77.59787826 -167.23730469 76.03295898 C-164.87058573 73.6596793 -162.52893152 71.26343234 -160.1875 68.86523438 C-150.26965792 58.83570075 -140.91160858 49.57737781 -125.984375 49.0234375 C-112.74927512 49.34996135 -103.43345873 55.96975001 -93.27392578 63.61572266 C-90.07960074 66.01572418 -86.85542135 68.3734641 -83.6237793 70.72290039 C-82.06431057 71.85724777 -80.50953777 72.99808741 -78.96020508 74.14624023 C-78.2514624 74.66516846 -77.54271973 75.18409668 -76.8125 75.71875 C-75.8829248 76.40541748 -75.8829248 76.40541748 -74.93457031 77.10595703 C-70.71856859 79.76497264 -68.2460271 80.62448669 -63.296875 79.58544922 C-53.60885378 76.83927079 -53.60885378 76.83927079 -46.61669922 70.07580566 C-44.16074925 63.45087115 -43.63070688 56.44886235 -42.984375 49.4609375 C-42.60899441 46.33357216 -42.20767439 43.21055489 -41.79907227 40.08737183 C-41.55542328 38.15365437 -41.33544258 36.2167403 -41.14428711 34.27713013 C-39.96639521 23.22393887 -36.19277281 14.9014189 -27.984375 7.3359375 C-19.23651636 0.50427646 -10.79034181 0.02004561 0 0 Z M-64.734375 186.2734375 C-82.82660271 206.85761356 -92.14349828 234.17654658 -90.796875 261.4609375 C-88.69332329 292.60083693 -75.02516722 318.64730586 -51.69140625 339.15625 C-29.02899143 357.40390868 -0.92316172 365.48298625 27.8828125 362.58203125 C57.22881692 359.19595382 82.56597763 344.24920924 101.015625 321.3359375 C118.88321908 296.23045361 125.33372949 268.38671448 121.5546875 237.7265625 C116.53403963 210.2015989 100.54950357 185.23821538 77.77734375 169.03125 C31.60785726 138.01703102 -27.30605454 145.88604042 -64.734375 186.2734375 Z " fill="#9EA4AA" transform="translate(239.984375,-0.3359375)"/>
<path d="M0 0 C1.44418351 1.239474 2.85772642 2.5149885 4.25 3.8125 C4.7445166 4.2569043 5.2390332 4.70130859 5.74853516 5.15917969 C14.24686536 12.84826515 20.24609817 20.47189526 25.25 30.8125 C25.74113281 31.81023437 26.23226562 32.80796875 26.73828125 33.8359375 C35.41505973 52.9299692 35.69229809 74.57707135 28.38818359 94.11816406 C24.83272243 102.81175657 20.69077628 110.90132995 14.25 117.8125 C13.8055957 118.3070166 13.36119141 118.8015332 12.90332031 119.31103516 C5.21423485 127.80936536 -2.40939526 133.80859817 -12.75 138.8125 C-13.74773437 139.30363281 -14.74546875 139.79476562 -15.7734375 140.30078125 C-34.8674692 148.97755973 -56.51457135 149.25479809 -76.05566406 141.95068359 C-84.74925657 138.39522243 -92.83882995 134.25327628 -99.75 127.8125 C-100.2445166 127.3680957 -100.7390332 126.92369141 -101.24853516 126.46582031 C-109.74686536 118.77673485 -115.74609817 111.15310474 -120.75 100.8125 C-121.24113281 99.81476563 -121.73226562 98.81703125 -122.23828125 97.7890625 C-130.91505973 78.6950308 -131.19229809 57.04792865 -123.88818359 37.50683594 C-120.33272243 28.81324343 -116.19077628 20.72367005 -109.75 13.8125 C-109.3055957 13.3179834 -108.86119141 12.8234668 -108.40332031 12.31396484 C-100.71423485 3.81563464 -93.09060474 -2.18359817 -82.75 -7.1875 C-81.25339844 -7.92419922 -81.25339844 -7.92419922 -79.7265625 -8.67578125 C-53.98036496 -20.37546083 -22.78088326 -16.68108392 0 0 Z " fill="#9DA3A9" transform="translate(303.75,190.1875)"/>
</svg>
